<svg xmlns="http://www.w3.org/2000/svg" width="23" height="13" viewBox="0 0 23 13" fill="none">
  <path d="M22.92 5.62409C22.8724 5.50134 22.801 5.3892 22.71 5.29409L17.71 0.294092C17.6168 0.200853 17.5061 0.126893 17.3843 0.0764322C17.2624 0.0259719 17.1319 0 17 0C16.7337 0 16.4783 0.105788 16.29 0.294092C16.1968 0.38733 16.1228 0.498021 16.0723 0.619843C16.0219 0.741665 15.9959 0.872233 15.9959 1.00409C15.9959 1.27039 16.1017 1.52579 16.29 1.71409L19.59 5.00409H1C0.734784 5.00409 0.48043 5.10945 0.292893 5.29699C0.105357 5.48452 0 5.73888 0 6.00409C0 6.26931 0.105357 6.52366 0.292893 6.7112C0.48043 6.89873 0.734784 7.00409 1 7.00409H19.59L16.29 10.2941C16.1963 10.3871 16.1219 10.4977 16.0711 10.6195C16.0203 10.7414 15.9942 10.8721 15.9942 11.0041C15.9942 11.1361 16.0203 11.2668 16.0711 11.3887C16.1219 11.5105 16.1963 11.6211 16.29 11.7141C16.383 11.8078 16.4936 11.8822 16.6154 11.933C16.7373 11.9838 16.868 12.0099 17 12.0099C17.132 12.0099 17.2627 11.9838 17.3846 11.933C17.5064 11.8822 17.617 11.8078 17.71 11.7141L22.71 6.71409C22.801 6.61899 22.8724 6.50684 22.92 6.38409C23.02 6.14063 23.02 5.86755 22.92 5.62409Z" fill="white"/>
</svg>