<svg width="350" height="100" viewBox="0 0 350 100" fill="none" xmlns="http://www.w3.org/2000/svg">
<rect width="350" height="100" rx="50" fill="#60D038"/>
<path d="M45.6678 46.7V49.54H50.2478V52.18H45.6678V55.26H50.8478V58H42.2478V43.96H50.8478V46.7H45.6678ZM59.8681 46.72C61.1748 46.72 62.2148 47.1467 62.9881 48C63.7748 48.84 64.1681 50 64.1681 51.48V58H60.7681V51.94C60.7681 51.1933 60.5748 50.6133 60.1881 50.2C59.8015 49.7867 59.2815 49.58 58.6281 49.58C57.9748 49.58 57.4548 49.7867 57.0681 50.2C56.6815 50.6133 56.4881 51.1933 56.4881 51.94V58H53.0681V46.84H56.4881V48.32C56.8348 47.8267 57.3015 47.44 57.8881 47.16C58.4748 46.8667 59.1348 46.72 59.8681 46.72ZM72.7647 55.1V58H71.0247C69.7847 58 68.818 57.7 68.1247 57.1C67.4314 56.4867 67.0847 55.4933 67.0847 54.12V49.68H65.7247V46.84H67.0847V44.12H70.5047V46.84H72.7447V49.68H70.5047V54.16C70.5047 54.4933 70.5847 54.7333 70.7447 54.88C70.9047 55.0267 71.1714 55.1 71.5447 55.1H72.7647ZM78.0897 48.7C78.4897 48.0867 78.9897 47.6067 79.5897 47.26C80.1897 46.9 80.8564 46.72 81.5897 46.72V50.34H80.6497C79.7964 50.34 79.1564 50.5267 78.7297 50.9C78.303 51.26 78.0897 51.9 78.0897 52.82V58H74.6697V46.84H78.0897V48.7ZM93.7444 52.24C93.7444 52.56 93.7244 52.8933 93.6844 53.24H85.9444C85.9977 53.9333 86.2177 54.4667 86.6044 54.84C87.0044 55.2 87.491 55.38 88.0644 55.38C88.9177 55.38 89.511 55.02 89.8444 54.3H93.4844C93.2977 55.0333 92.9577 55.6933 92.4644 56.28C91.9844 56.8667 91.3777 57.3267 90.6444 57.66C89.911 57.9933 89.091 58.16 88.1844 58.16C87.091 58.16 86.1177 57.9267 85.2644 57.46C84.411 56.9933 83.7444 56.3267 83.2644 55.46C82.7844 54.5933 82.5444 53.58 82.5444 52.42C82.5444 51.26 82.7777 50.2467 83.2444 49.38C83.7244 48.5133 84.391 47.8467 85.2444 47.38C86.0977 46.9133 87.0777 46.68 88.1844 46.68C89.2644 46.68 90.2244 46.9067 91.0644 47.36C91.9044 47.8133 92.5577 48.46 93.0244 49.3C93.5044 50.14 93.7444 51.12 93.7444 52.24ZM90.2444 51.34C90.2444 50.7533 90.0444 50.2867 89.6444 49.94C89.2444 49.5933 88.7444 49.42 88.1444 49.42C87.571 49.42 87.0844 49.5867 86.6844 49.92C86.2977 50.2533 86.0577 50.7267 85.9644 51.34H90.2444ZM110.307 52.24C110.307 52.56 110.287 52.8933 110.247 53.24H102.507C102.56 53.9333 102.78 54.4667 103.167 54.84C103.567 55.2 104.054 55.38 104.627 55.38C105.48 55.38 106.074 55.02 106.407 54.3H110.047C109.86 55.0333 109.52 55.6933 109.027 56.28C108.547 56.8667 107.94 57.3267 107.207 57.66C106.474 57.9933 105.654 58.16 104.747 58.16C103.654 58.16 102.68 57.9267 101.827 57.46C100.974 56.9933 100.307 56.3267 99.8269 55.46C99.3469 54.5933 99.1069 53.58 99.1069 52.42C99.1069 51.26 99.3402 50.2467 99.8069 49.38C100.287 48.5133 100.954 47.8467 101.807 47.38C102.66 46.9133 103.64 46.68 104.747 46.68C105.827 46.68 106.787 46.9067 107.627 47.36C108.467 47.8133 109.12 48.46 109.587 49.3C110.067 50.14 110.307 51.12 110.307 52.24ZM106.807 51.34C106.807 50.7533 106.607 50.2867 106.207 49.94C105.807 49.5933 105.307 49.42 104.707 49.42C104.134 49.42 103.647 49.5867 103.247 49.92C102.86 50.2533 102.62 50.7267 102.527 51.34H106.807ZM126.351 46.72C127.738 46.72 128.838 47.14 129.651 47.98C130.478 48.82 130.891 49.9867 130.891 51.48V58H127.491V51.94C127.491 51.22 127.298 50.6667 126.911 50.28C126.538 49.88 126.018 49.68 125.351 49.68C124.684 49.68 124.158 49.88 123.771 50.28C123.398 50.6667 123.211 51.22 123.211 51.94V58H119.811V51.94C119.811 51.22 119.618 50.6667 119.231 50.28C118.858 49.88 118.338 49.68 117.671 49.68C117.004 49.68 116.478 49.88 116.091 50.28C115.718 50.6667 115.531 51.22 115.531 51.94V58H112.111V46.84H115.531V48.24C115.878 47.7733 116.331 47.4067 116.891 47.14C117.451 46.86 118.084 46.72 118.791 46.72C119.631 46.72 120.378 46.9 121.031 47.26C121.698 47.62 122.218 48.1333 122.591 48.8C122.978 48.1867 123.504 47.6867 124.171 47.3C124.838 46.9133 125.564 46.72 126.351 46.72ZM136.841 52.42C136.841 51.26 137.075 50.2467 137.541 49.38C138.021 48.5133 138.681 47.8467 139.521 47.38C140.375 46.9133 141.348 46.68 142.441 46.68C143.841 46.68 145.008 47.0467 145.941 47.78C146.888 48.5133 147.508 49.5467 147.801 50.88H144.161C143.855 50.0267 143.261 49.6 142.381 49.6C141.755 49.6 141.255 49.8467 140.881 50.34C140.508 50.82 140.321 51.5133 140.321 52.42C140.321 53.3267 140.508 54.0267 140.881 54.52C141.255 55 141.755 55.24 142.381 55.24C143.261 55.24 143.855 54.8133 144.161 53.96H147.801C147.508 55.2667 146.888 56.2933 145.941 57.04C144.995 57.7867 143.828 58.16 142.441 58.16C141.348 58.16 140.375 57.9267 139.521 57.46C138.681 56.9933 138.021 56.3267 137.541 55.46C137.075 54.5933 136.841 53.58 136.841 52.42ZM154.711 58.16C153.617 58.16 152.631 57.9267 151.751 57.46C150.884 56.9933 150.197 56.3267 149.691 55.46C149.197 54.5933 148.951 53.58 148.951 52.42C148.951 51.2733 149.204 50.2667 149.711 49.4C150.217 48.52 150.911 47.8467 151.791 47.38C152.671 46.9133 153.657 46.68 154.751 46.68C155.844 46.68 156.831 46.9133 157.711 47.38C158.591 47.8467 159.284 48.52 159.791 49.4C160.297 50.2667 160.551 51.2733 160.551 52.42C160.551 53.5667 160.291 54.58 159.771 55.46C159.264 56.3267 158.564 56.9933 157.671 57.46C156.791 57.9267 155.804 58.16 154.711 58.16ZM154.711 55.2C155.364 55.2 155.917 54.96 156.371 54.48C156.837 54 157.071 53.3133 157.071 52.42C157.071 51.5267 156.844 50.84 156.391 50.36C155.951 49.88 155.404 49.64 154.751 49.64C154.084 49.64 153.531 49.88 153.091 50.36C152.651 50.8267 152.431 51.5133 152.431 52.42C152.431 53.3133 152.644 54 153.071 54.48C153.511 54.96 154.057 55.2 154.711 55.2ZM169.165 46.72C170.472 46.72 171.512 47.1467 172.285 48C173.072 48.84 173.465 50 173.465 51.48V58H170.065V51.94C170.065 51.1933 169.872 50.6133 169.485 50.2C169.098 49.7867 168.578 49.58 167.925 49.58C167.272 49.58 166.752 49.7867 166.365 50.2C165.978 50.6133 165.785 51.1933 165.785 51.94V58H162.365V46.84H165.785V48.32C166.132 47.8267 166.598 47.44 167.185 47.16C167.772 46.8667 168.432 46.72 169.165 46.72ZM182.062 55.1V58H180.322C179.082 58 178.115 57.7 177.422 57.1C176.728 56.4867 176.382 55.4933 176.382 54.12V49.68H175.022V46.84H176.382V44.12H179.802V46.84H182.042V49.68H179.802V54.16C179.802 54.4933 179.882 54.7333 180.042 54.88C180.202 55.0267 180.468 55.1 180.842 55.1H182.062ZM183.287 52.4C183.287 51.2533 183.5 50.2467 183.927 49.38C184.367 48.5133 184.96 47.8467 185.707 47.38C186.453 46.9133 187.287 46.68 188.207 46.68C188.993 46.68 189.68 46.84 190.267 47.16C190.867 47.48 191.327 47.9 191.647 48.42V46.84H195.067V58H191.647V56.42C191.313 56.94 190.847 57.36 190.247 57.68C189.66 58 188.973 58.16 188.187 58.16C187.28 58.16 186.453 57.9267 185.707 57.46C184.96 56.98 184.367 56.3067 183.927 55.44C183.5 54.56 183.287 53.5467 183.287 52.4ZM191.647 52.42C191.647 51.5667 191.407 50.8933 190.927 50.4C190.46 49.9067 189.887 49.66 189.207 49.66C188.527 49.66 187.947 49.9067 187.467 50.4C187 50.88 186.767 51.5467 186.767 52.4C186.767 53.2533 187 53.9333 187.467 54.44C187.947 54.9333 188.527 55.18 189.207 55.18C189.887 55.18 190.46 54.9333 190.927 54.44C191.407 53.9467 191.647 53.2733 191.647 52.42ZM203.761 55.1V58H202.021C200.781 58 199.814 57.7 199.121 57.1C198.427 56.4867 198.081 55.4933 198.081 54.12V49.68H196.721V46.84H198.081V44.12H201.501V46.84H203.741V49.68H201.501V54.16C201.501 54.4933 201.581 54.7333 201.741 54.88C201.901 55.0267 202.167 55.1 202.541 55.1H203.761ZM210.746 58.16C209.652 58.16 208.666 57.9267 207.786 57.46C206.919 56.9933 206.232 56.3267 205.726 55.46C205.232 54.5933 204.986 53.58 204.986 52.42C204.986 51.2733 205.239 50.2667 205.746 49.4C206.252 48.52 206.946 47.8467 207.826 47.38C208.706 46.9133 209.692 46.68 210.786 46.68C211.879 46.68 212.866 46.9133 213.746 47.38C214.626 47.8467 215.319 48.52 215.826 49.4C216.332 50.2667 216.586 51.2733 216.586 52.42C216.586 53.5667 216.326 54.58 215.806 55.46C215.299 56.3267 214.599 56.9933 213.706 57.46C212.826 57.9267 211.839 58.16 210.746 58.16ZM210.746 55.2C211.399 55.2 211.952 54.96 212.406 54.48C212.872 54 213.106 53.3133 213.106 52.42C213.106 51.5267 212.879 50.84 212.426 50.36C211.986 49.88 211.439 49.64 210.786 49.64C210.119 49.64 209.566 49.88 209.126 50.36C208.686 50.8267 208.466 51.5133 208.466 52.42C208.466 53.3133 208.679 54 209.106 54.48C209.546 54.96 210.092 55.2 210.746 55.2ZM222.9 43.46L222.5 53.04H219.6L219.2 43.46H222.9ZM221.1 58.16C220.5 58.16 220.007 57.9867 219.62 57.64C219.247 57.28 219.06 56.84 219.06 56.32C219.06 55.7867 219.247 55.34 219.62 54.98C220.007 54.62 220.5 54.44 221.1 54.44C221.687 54.44 222.167 54.62 222.54 54.98C222.927 55.34 223.12 55.7867 223.12 56.32C223.12 56.84 222.927 57.28 222.54 57.64C222.167 57.9867 221.687 58.16 221.1 58.16Z" fill="white"/>
<rect x="259" y="10" width="80" height="80" rx="40" fill="white"/>
<path d="M310.205 54.824C309.723 54.5843 306.588 53.1461 306.106 52.9064C305.623 52.6667 305.141 52.6667 304.659 53.1461C304.177 53.6255 303.212 55.0637 302.73 55.5431C302.489 56.0225 302.007 56.0225 301.524 55.7828C299.836 55.0637 298.148 54.1049 296.702 52.9064C295.496 51.7079 294.29 50.2697 293.326 48.8315C293.085 48.3521 293.326 47.8727 293.567 47.633C293.808 47.3933 294.049 46.9139 294.532 46.6742C294.773 46.4345 295.014 45.9551 295.014 45.7154C295.255 45.4757 295.255 44.9963 295.014 44.7566C294.773 44.5169 293.567 41.6405 293.085 40.4419C292.844 38.764 292.361 38.764 291.879 38.764H290.673C290.191 38.764 289.468 39.2434 289.227 39.4831C287.78 40.9213 287.056 42.5993 287.056 44.5169C287.298 46.6742 288.021 48.8315 289.468 50.7491C292.12 54.5843 295.496 57.7004 299.595 59.618C300.801 60.0974 301.765 60.5768 302.971 60.8165C304.177 61.2959 305.382 61.2959 306.829 61.0562C308.517 60.8165 309.964 59.618 310.928 58.1798C311.411 57.221 311.411 56.2622 311.169 55.3034L310.205 54.824ZM316.233 33.0112C306.829 23.6629 291.638 23.6629 282.234 33.0112C274.518 40.6816 273.071 52.427 278.376 61.7753L275 74L287.78 70.6442C291.397 72.5618 295.255 73.5206 299.113 73.5206C312.375 73.5206 322.985 62.9738 322.985 49.7903C323.226 43.5581 320.574 37.5655 316.233 33.0112ZM309.723 66.5693C306.588 68.4869 302.971 69.6854 299.113 69.6854C295.496 69.6854 292.12 68.7266 288.986 67.0487L288.262 66.5693L280.787 68.4869L282.716 61.2959L282.234 60.5768C276.447 50.9888 279.34 39.0037 288.744 33.0112C298.148 27.0187 310.205 30.1348 315.992 39.2434C321.779 48.5918 319.127 60.8165 309.723 66.5693Z" fill="#60D038"/>
</svg>
