<svg width="350" height="100" viewBox="0 0 350 100" fill="none" xmlns="http://www.w3.org/2000/svg">
<rect width="350" height="100" rx="50" fill="#60D038"/>
<path d="M38.6652 43.96V46.7H32.9452V49.66H37.2252V52.32H32.9452V58H29.5252V43.96H38.6652ZM39.7827 52.4C39.7827 51.2533 39.996 50.2467 40.4227 49.38C40.8627 48.5133 41.456 47.8467 42.2027 47.38C42.9493 46.9133 43.7827 46.68 44.7027 46.68C45.4893 46.68 46.176 46.84 46.7627 47.16C47.3627 47.48 47.8227 47.9 48.1427 48.42V46.84H51.5627V58H48.1427V56.42C47.8093 56.94 47.3427 57.36 46.7427 57.68C46.156 58 45.4693 58.16 44.6827 58.16C43.776 58.16 42.9493 57.9267 42.2027 57.46C41.456 56.98 40.8627 56.3067 40.4227 55.44C39.996 54.56 39.7827 53.5467 39.7827 52.4ZM48.1427 52.42C48.1427 51.5667 47.9027 50.8933 47.4227 50.4C46.956 49.9067 46.3827 49.66 45.7027 49.66C45.0227 49.66 44.4427 49.9067 43.9627 50.4C43.496 50.88 43.2627 51.5467 43.2627 52.4C43.2627 53.2533 43.496 53.9333 43.9627 54.44C44.4427 54.9333 45.0227 55.18 45.7027 55.18C46.3827 55.18 46.956 54.9333 47.4227 54.44C47.9027 53.9467 48.1427 53.2733 48.1427 52.42ZM58.8969 55.24C59.7769 55.24 60.3702 54.8133 60.6769 53.96H64.3169C64.0635 55.0933 63.5569 56.02 62.7969 56.74C62.0369 57.46 61.0902 57.9067 59.9569 58.08V58.82C60.6502 58.82 61.2569 59.0067 61.7769 59.38C62.2969 59.7667 62.5569 60.34 62.5569 61.1C62.5569 61.86 62.2835 62.4333 61.7369 62.82C61.1902 63.22 60.5369 63.42 59.7769 63.42H56.6969V61.54H59.3169C59.5835 61.54 59.7835 61.5 59.9169 61.42C60.0502 61.34 60.1169 61.2067 60.1169 61.02C60.1169 60.8333 60.0502 60.7 59.9169 60.62C59.7835 60.5533 59.5835 60.52 59.3169 60.52H57.8969V58.08C56.5235 57.8667 55.4235 57.26 54.5969 56.26C53.7702 55.2467 53.3569 53.9667 53.3569 52.42C53.3569 51.26 53.5902 50.2467 54.0569 49.38C54.5369 48.5133 55.1969 47.8467 56.0369 47.38C56.8902 46.9133 57.8635 46.68 58.9569 46.68C60.3569 46.68 61.5235 47.0467 62.4569 47.78C63.4035 48.5133 64.0235 49.5467 64.3169 50.88H60.6769C60.3702 50.0267 59.7769 49.6 58.8969 49.6C58.2702 49.6 57.7702 49.8467 57.3969 50.34C57.0235 50.82 56.8369 51.5133 56.8369 52.42C56.8369 53.3267 57.0235 54.0267 57.3969 54.52C57.7702 55 58.2702 55.24 58.8969 55.24ZM65.4663 52.4C65.4663 51.2533 65.6796 50.2467 66.1063 49.38C66.5463 48.5133 67.1396 47.8467 67.8863 47.38C68.6329 46.9133 69.4663 46.68 70.3863 46.68C71.1729 46.68 71.8596 46.84 72.4463 47.16C73.0463 47.48 73.5063 47.9 73.8263 48.42V46.84H77.2463V58H73.8263V56.42C73.4929 56.94 73.0263 57.36 72.4263 57.68C71.8396 58 71.1529 58.16 70.3663 58.16C69.4596 58.16 68.6329 57.9267 67.8863 57.46C67.1396 56.98 66.5463 56.3067 66.1063 55.44C65.6796 54.56 65.4663 53.5467 65.4663 52.4ZM73.8263 52.42C73.8263 51.5667 73.5863 50.8933 73.1063 50.4C72.6396 49.9067 72.0663 49.66 71.3863 49.66C70.7063 49.66 70.1263 49.9067 69.6463 50.4C69.1796 50.88 68.9463 51.5467 68.9463 52.4C68.9463 53.2533 69.1796 53.9333 69.6463 54.44C70.1263 54.9333 70.7063 55.18 71.3863 55.18C72.0663 55.18 72.6396 54.9333 73.1063 54.44C73.5863 53.9467 73.8263 53.2733 73.8263 52.42ZM88.4988 58.16C87.5254 58.16 86.6588 57.9933 85.8988 57.66C85.1388 57.3267 84.5388 56.8733 84.0988 56.3C83.6588 55.7133 83.4121 55.06 83.3588 54.34H86.7388C86.7788 54.7267 86.9588 55.04 87.2788 55.28C87.5988 55.52 87.9921 55.64 88.4588 55.64C88.8854 55.64 89.2121 55.56 89.4388 55.4C89.6788 55.2267 89.7988 55.0067 89.7988 54.74C89.7988 54.42 89.6321 54.1867 89.2988 54.04C88.9654 53.88 88.4254 53.7067 87.6788 53.52C86.8788 53.3333 86.2121 53.14 85.6788 52.94C85.1454 52.7267 84.6854 52.4 84.2988 51.96C83.9121 51.5067 83.7188 50.9 83.7188 50.14C83.7188 49.5 83.8921 48.92 84.2388 48.4C84.5988 47.8667 85.1188 47.4467 85.7988 47.14C86.4921 46.8333 87.3121 46.68 88.2588 46.68C89.6588 46.68 90.7588 47.0267 91.5588 47.72C92.3721 48.4133 92.8388 49.3333 92.9588 50.48H89.7988C89.7454 50.0933 89.5721 49.7867 89.2788 49.56C88.9988 49.3333 88.6254 49.22 88.1588 49.22C87.7588 49.22 87.4521 49.3 87.2388 49.46C87.0254 49.6067 86.9188 49.8133 86.9188 50.08C86.9188 50.4 87.0854 50.64 87.4188 50.8C87.7654 50.96 88.2988 51.12 89.0188 51.28C89.8454 51.4933 90.5188 51.7067 91.0388 51.92C91.5588 52.12 92.0121 52.4533 92.3988 52.92C92.7988 53.3733 93.0054 53.9867 93.0188 54.76C93.0188 55.4133 92.8321 56 92.4588 56.52C92.0988 57.0267 91.5721 57.4267 90.8788 57.72C90.1988 58.0133 89.4054 58.16 88.4988 58.16ZM105.631 52.24C105.631 52.56 105.611 52.8933 105.571 53.24H97.8311C97.8844 53.9333 98.1044 54.4667 98.4911 54.84C98.8911 55.2 99.3778 55.38 99.9511 55.38C100.804 55.38 101.398 55.02 101.731 54.3H105.371C105.184 55.0333 104.844 55.6933 104.351 56.28C103.871 56.8667 103.264 57.3267 102.531 57.66C101.798 57.9933 100.978 58.16 100.071 58.16C98.9778 58.16 98.0044 57.9267 97.1511 57.46C96.2978 56.9933 95.6311 56.3267 95.1511 55.46C94.6711 54.5933 94.4311 53.58 94.4311 52.42C94.4311 51.26 94.6644 50.2467 95.1311 49.38C95.6111 48.5133 96.2778 47.8467 97.1311 47.38C97.9844 46.9133 98.9644 46.68 100.071 46.68C101.151 46.68 102.111 46.9067 102.951 47.36C103.791 47.8133 104.444 48.46 104.911 49.3C105.391 50.14 105.631 51.12 105.631 52.24ZM102.131 51.34C102.131 50.7533 101.931 50.2867 101.531 49.94C101.131 49.5933 100.631 49.42 100.031 49.42C99.4578 49.42 98.9711 49.5867 98.5711 49.92C98.1844 50.2533 97.9444 50.7267 97.8511 51.34H102.131ZM118.455 46.84V58H115.035V56.48C114.689 56.9733 114.215 57.3733 113.615 57.68C113.029 57.9733 112.375 58.12 111.655 58.12C110.802 58.12 110.049 57.9333 109.395 57.56C108.742 57.1733 108.235 56.62 107.875 55.9C107.515 55.18 107.335 54.3333 107.335 53.36V46.84H110.735V52.9C110.735 53.6467 110.929 54.2267 111.315 54.64C111.702 55.0533 112.222 55.26 112.875 55.26C113.542 55.26 114.069 55.0533 114.455 54.64C114.842 54.2267 115.035 53.6467 115.035 52.9V46.84H118.455ZM130.23 58.16C129.137 58.16 128.15 57.9267 127.27 57.46C126.403 56.9933 125.717 56.3267 125.21 55.46C124.717 54.5933 124.47 53.58 124.47 52.42C124.47 51.2733 124.723 50.2667 125.23 49.4C125.737 48.52 126.43 47.8467 127.31 47.38C128.19 46.9133 129.177 46.68 130.27 46.68C131.363 46.68 132.35 46.9133 133.23 47.38C134.11 47.8467 134.803 48.52 135.31 49.4C135.817 50.2667 136.07 51.2733 136.07 52.42C136.07 53.5667 135.81 54.58 135.29 55.46C134.783 56.3267 134.083 56.9933 133.19 57.46C132.31 57.9267 131.323 58.16 130.23 58.16ZM130.23 55.2C130.883 55.2 131.437 54.96 131.89 54.48C132.357 54 132.59 53.3133 132.59 52.42C132.59 51.5267 132.363 50.84 131.91 50.36C131.47 49.88 130.923 49.64 130.27 49.64C129.603 49.64 129.05 49.88 128.61 50.36C128.17 50.8267 127.95 51.5133 127.95 52.42C127.95 53.3133 128.163 54 128.59 54.48C129.03 54.96 129.577 55.2 130.23 55.2ZM141.305 48.7C141.705 48.0867 142.205 47.6067 142.805 47.26C143.405 46.9 144.071 46.72 144.805 46.72V50.34H143.865C143.011 50.34 142.371 50.5267 141.945 50.9C141.518 51.26 141.305 51.9 141.305 52.82V58H137.885V46.84H141.305V48.7ZM151.299 55.24C152.179 55.24 152.773 54.8133 153.079 53.96H156.719C156.466 55.0933 155.959 56.02 155.199 56.74C154.439 57.46 153.493 57.9067 152.359 58.08V58.82C153.053 58.82 153.659 59.0067 154.179 59.38C154.699 59.7667 154.959 60.34 154.959 61.1C154.959 61.86 154.686 62.4333 154.139 62.82C153.593 63.22 152.939 63.42 152.179 63.42H149.099V61.54H151.719C151.986 61.54 152.186 61.5 152.319 61.42C152.453 61.34 152.519 61.2067 152.519 61.02C152.519 60.8333 152.453 60.7 152.319 60.62C152.186 60.5533 151.986 60.52 151.719 60.52H150.299V58.08C148.926 57.8667 147.826 57.26 146.999 56.26C146.173 55.2467 145.759 53.9667 145.759 52.42C145.759 51.26 145.993 50.2467 146.459 49.38C146.939 48.5133 147.599 47.8467 148.439 47.38C149.293 46.9133 150.266 46.68 151.359 46.68C152.759 46.68 153.926 47.0467 154.859 47.78C155.806 48.5133 156.426 49.5467 156.719 50.88H153.079C152.773 50.0267 152.179 49.6 151.299 49.6C150.673 49.6 150.173 49.8467 149.799 50.34C149.426 50.82 149.239 51.5133 149.239 52.42C149.239 53.3267 149.426 54.0267 149.799 54.52C150.173 55 150.673 55.24 151.299 55.24ZM157.869 52.4C157.869 51.2533 158.082 50.2467 158.509 49.38C158.949 48.5133 159.542 47.8467 160.289 47.38C161.035 46.9133 161.869 46.68 162.789 46.68C163.575 46.68 164.262 46.84 164.849 47.16C165.449 47.48 165.909 47.9 166.229 48.42V46.84H169.649V58H166.229V56.42C165.895 56.94 165.429 57.36 164.829 57.68C164.242 58 163.555 58.16 162.769 58.16C161.862 58.16 161.035 57.9267 160.289 57.46C159.542 56.98 158.949 56.3067 158.509 55.44C158.082 54.56 157.869 53.5467 157.869 52.4ZM166.229 52.42C166.229 51.5667 165.989 50.8933 165.509 50.4C165.042 49.9067 164.469 49.66 163.789 49.66C163.109 49.66 162.529 49.9067 162.049 50.4C161.582 50.88 161.349 51.5467 161.349 52.4C161.349 53.2533 161.582 53.9333 162.049 54.44C162.529 54.9333 163.109 55.18 163.789 55.18C164.469 55.18 165.042 54.9333 165.509 54.44C165.989 53.9467 166.229 53.2733 166.229 52.42ZM186.363 46.72C187.749 46.72 188.849 47.14 189.663 47.98C190.489 48.82 190.903 49.9867 190.903 51.48V58H187.503V51.94C187.503 51.22 187.309 50.6667 186.923 50.28C186.549 49.88 186.029 49.68 185.363 49.68C184.696 49.68 184.169 49.88 183.783 50.28C183.409 50.6667 183.223 51.22 183.223 51.94V58H179.823V51.94C179.823 51.22 179.629 50.6667 179.243 50.28C178.869 49.88 178.349 49.68 177.683 49.68C177.016 49.68 176.489 49.88 176.103 50.28C175.729 50.6667 175.543 51.22 175.543 51.94V58H172.123V46.84H175.543V48.24C175.889 47.7733 176.343 47.4067 176.903 47.14C177.463 46.86 178.096 46.72 178.803 46.72C179.643 46.72 180.389 46.9 181.043 47.26C181.709 47.62 182.229 48.1333 182.603 48.8C182.989 48.1867 183.516 47.6867 184.183 47.3C184.849 46.9133 185.576 46.72 186.363 46.72ZM203.815 52.24C203.815 52.56 203.795 52.8933 203.755 53.24H196.015C196.068 53.9333 196.288 54.4667 196.675 54.84C197.075 55.2 197.561 55.38 198.135 55.38C198.988 55.38 199.581 55.02 199.915 54.3H203.555C203.368 55.0333 203.028 55.6933 202.535 56.28C202.055 56.8667 201.448 57.3267 200.715 57.66C199.981 57.9933 199.161 58.16 198.255 58.16C197.161 58.16 196.188 57.9267 195.335 57.46C194.481 56.9933 193.815 56.3267 193.335 55.46C192.855 54.5933 192.615 53.58 192.615 52.42C192.615 51.26 192.848 50.2467 193.315 49.38C193.795 48.5133 194.461 47.8467 195.315 47.38C196.168 46.9133 197.148 46.68 198.255 46.68C199.335 46.68 200.295 46.9067 201.135 47.36C201.975 47.8133 202.628 48.46 203.095 49.3C203.575 50.14 203.815 51.12 203.815 52.24ZM200.315 51.34C200.315 50.7533 200.115 50.2867 199.715 49.94C199.315 49.5933 198.815 49.42 198.215 49.42C197.641 49.42 197.155 49.5867 196.755 49.92C196.368 50.2533 196.128 50.7267 196.035 51.34H200.315ZM212.419 46.72C213.726 46.72 214.766 47.1467 215.539 48C216.326 48.84 216.719 50 216.719 51.48V58H213.319V51.94C213.319 51.1933 213.126 50.6133 212.739 50.2C212.352 49.7867 211.832 49.58 211.179 49.58C210.526 49.58 210.006 49.7867 209.619 50.2C209.232 50.6133 209.039 51.1933 209.039 51.94V58H205.619V46.84H209.039V48.32C209.386 47.8267 209.852 47.44 210.439 47.16C211.026 46.8667 211.686 46.72 212.419 46.72ZM225.315 55.1V58H223.575C222.335 58 221.369 57.7 220.675 57.1C219.982 56.4867 219.635 55.4933 219.635 54.12V49.68H218.275V46.84H219.635V44.12H223.055V46.84H225.295V49.68H223.055V54.16C223.055 54.4933 223.135 54.7333 223.295 54.88C223.455 55.0267 223.722 55.1 224.095 55.1H225.315ZM232.3 58.16C231.207 58.16 230.22 57.9267 229.34 57.46C228.474 56.9933 227.787 56.3267 227.28 55.46C226.787 54.5933 226.54 53.58 226.54 52.42C226.54 51.2733 226.794 50.2667 227.3 49.4C227.807 48.52 228.5 47.8467 229.38 47.38C230.26 46.9133 231.247 46.68 232.34 46.68C233.434 46.68 234.42 46.9133 235.3 47.38C236.18 47.8467 236.874 48.52 237.38 49.4C237.887 50.2667 238.14 51.2733 238.14 52.42C238.14 53.5667 237.88 54.58 237.36 55.46C236.854 56.3267 236.154 56.9933 235.26 57.46C234.38 57.9267 233.394 58.16 232.3 58.16ZM232.3 55.2C232.954 55.2 233.507 54.96 233.96 54.48C234.427 54 234.66 53.3133 234.66 52.42C234.66 51.5267 234.434 50.84 233.98 50.36C233.54 49.88 232.994 49.64 232.34 49.64C231.674 49.64 231.12 49.88 230.68 50.36C230.24 50.8267 230.02 51.5133 230.02 52.42C230.02 53.3133 230.234 54 230.66 54.48C231.1 54.96 231.647 55.2 232.3 55.2Z" fill="white"/>
<rect x="259" y="10" width="80" height="80" rx="40" fill="white"/>
<path d="M310.205 54.824C309.723 54.5843 306.588 53.1461 306.106 52.9064C305.623 52.6667 305.141 52.6667 304.659 53.1461C304.177 53.6255 303.212 55.0637 302.73 55.5431C302.489 56.0225 302.007 56.0225 301.524 55.7828C299.836 55.0637 298.148 54.1049 296.702 52.9064C295.496 51.7079 294.29 50.2697 293.326 48.8315C293.085 48.3521 293.326 47.8727 293.567 47.633C293.808 47.3933 294.049 46.9139 294.532 46.6742C294.773 46.4345 295.014 45.9551 295.014 45.7154C295.255 45.4757 295.255 44.9963 295.014 44.7566C294.773 44.5169 293.567 41.6404 293.085 40.4419C292.844 38.764 292.361 38.764 291.879 38.764H290.673C290.191 38.764 289.468 39.2434 289.227 39.4831C287.78 40.9213 287.056 42.5993 287.056 44.5169C287.298 46.6742 288.021 48.8315 289.468 50.7491C292.12 54.5843 295.496 57.7004 299.595 59.618C300.801 60.0974 301.765 60.5768 302.971 60.8165C304.177 61.2959 305.382 61.2959 306.829 61.0562C308.517 60.8165 309.964 59.618 310.928 58.1798C311.411 57.221 311.411 56.2622 311.169 55.3034L310.205 54.824ZM316.233 33.0112C306.829 23.6629 291.638 23.6629 282.234 33.0112C274.518 40.6816 273.071 52.427 278.376 61.7753L275 74L287.78 70.6442C291.397 72.5618 295.255 73.5206 299.113 73.5206C312.375 73.5206 322.985 62.9738 322.985 49.7903C323.226 43.5581 320.574 37.5655 316.233 33.0112ZM309.723 66.5693C306.588 68.4869 302.971 69.6854 299.113 69.6854C295.496 69.6854 292.12 68.7266 288.986 67.0487L288.262 66.5693L280.787 68.4869L282.716 61.2959L282.234 60.5768C276.447 50.9888 279.34 39.0037 288.744 33.0112C298.148 27.0187 310.205 30.1348 315.992 39.2434C321.779 48.5918 319.127 60.8165 309.723 66.5693Z" fill="#60D038"/>
</svg>
