<svg width="249" height="20" viewBox="0 0 249 20" fill="none" xmlns="http://www.w3.org/2000/svg">
<path d="M161.292 0.276812C155.357 4.48149 150.505 13.3412 149.009 18.8706C148.942 19.1173 149.26 19.2255 149.381 19.0005C154.703 9.08844 165.163 4.02012 172.564 0.656783C172.779 0.559219 172.708 0.237305 172.472 0.237305H161.417C161.373 0.237305 161.329 0.250831 161.292 0.276812Z" fill="white"/>
<path d="M158.205 0.619459C155.497 3.15469 154.935 3.75213 152.834 6.71181C152.733 6.85435 152.514 6.82755 152.451 6.66432L150.088 0.536196C150.032 0.392281 150.137 0.237305 150.291 0.237305H158.057C158.255 0.237305 158.35 0.483416 158.205 0.619459Z" fill="white"/>
<path d="M163.902 7.54487C162.545 8.0299 160.455 9.4452 159.255 10.4878C159.149 10.5798 159.161 10.7466 159.275 10.8275C162.618 13.1926 164.361 14.3647 167.214 19.0209C167.34 19.227 167.661 19.1095 167.621 18.8708C166.813 14.0106 165.943 11.5465 164.163 7.66021C164.118 7.5603 164.005 7.508 163.902 7.54487Z" fill="white"/>
<path d="M179.736 13.3638V5.67978H191.262C191.609 5.67978 191.909 5.55972 192.162 5.31959C192.416 5.06613 192.543 4.7593 192.543 4.39912V3.11845H182.297C181.577 3.11845 180.97 2.87166 180.476 2.37807C179.983 1.87114 179.736 1.26416 179.736 0.557129H195.104V5.67978C195.104 6.40015 194.85 7.00713 194.343 7.50072C193.837 7.99431 193.236 8.24111 192.543 8.24111H189.981L195.104 13.3638H191.262L186.139 8.24111H182.297V13.3638H179.736Z" fill="white"/>
<path d="M197.665 13.3638V5.67978H200.227V10.8024H210.472V5.67978H213.033V13.3638H197.665ZM200.227 3.11845C199.506 3.11845 198.899 2.87166 198.406 2.37807C197.912 1.87114 197.665 1.26416 197.665 0.557129H213.033C213.033 1.2775 212.78 1.88448 212.273 2.37807C211.766 2.87166 211.166 3.11845 210.472 3.11845H200.227Z" fill="white"/>
<path d="M218.156 13.3638C217.435 13.3638 216.828 13.117 216.335 12.6234C215.841 12.1164 215.594 11.5095 215.594 10.8024H230.962C230.962 11.5228 230.709 12.1298 230.202 12.6234C229.695 13.117 229.095 13.3638 228.401 13.3638H218.156ZM218.156 8.24111C217.435 8.24111 216.828 7.99431 216.335 7.50072C215.841 6.99379 215.594 6.38681 215.594 5.67978H230.962C230.962 6.40015 230.709 7.00713 230.202 7.50072C229.695 7.99431 229.095 8.24111 228.401 8.24111H218.156ZM218.156 3.11845C217.435 3.11845 216.828 2.87166 216.335 2.37807C215.841 1.87114 215.594 1.26416 215.594 0.557129H230.962C230.962 1.2775 230.709 1.88448 230.202 2.37807C229.695 2.87166 229.095 3.11845 228.401 3.11845H218.156Z" fill="white"/>
<path d="M236.085 13.3638C235.365 13.3638 234.758 13.117 234.264 12.6234C233.771 12.1164 233.524 11.5095 233.524 10.8024V5.67978H236.085V9.52177C236.085 9.88196 236.205 10.1888 236.445 10.4422C236.699 10.6824 237.006 10.8024 237.366 10.8024H248.892C248.892 11.5228 248.638 12.1298 248.131 12.6234C247.624 13.117 247.024 13.3638 246.33 13.3638H236.085ZM233.524 3.11845V0.557129H248.892C248.892 1.2775 248.638 1.88448 248.131 2.37807C247.624 2.87166 247.024 3.11845 246.33 3.11845H233.524Z" fill="white"/>
<path d="M180.912 19.1383C180.727 19.1383 180.561 19.096 180.412 19.0115C180.266 18.9244 180.15 18.8053 180.062 18.6542C179.978 18.5005 179.936 18.325 179.936 18.1278C179.936 17.928 179.978 17.7539 180.062 17.6053C180.15 17.4542 180.266 17.3351 180.412 17.248C180.561 17.1609 180.727 17.1174 180.912 17.1174C181.091 17.1174 181.252 17.1596 181.396 17.2442C181.539 17.3287 181.652 17.4465 181.734 17.5976C181.818 17.7487 181.861 17.9255 181.861 18.1278C181.861 18.3276 181.818 18.5043 181.734 18.658C181.652 18.8117 181.539 18.9308 181.396 19.0153C181.252 19.0973 181.091 19.1383 180.912 19.1383ZM180.915 19.023C181.079 19.023 181.225 18.9859 181.353 18.9116C181.481 18.8348 181.583 18.7285 181.657 18.5927C181.731 18.457 181.768 18.302 181.768 18.1278C181.768 17.9511 181.731 17.7961 181.657 17.6629C181.583 17.5272 181.481 17.4222 181.353 17.3479C181.225 17.2736 181.079 17.2365 180.915 17.2365C180.754 17.2365 180.609 17.2736 180.481 17.3479C180.353 17.4222 180.251 17.5272 180.174 17.6629C180.1 17.7961 180.062 17.9511 180.062 18.1278C180.062 18.302 180.1 18.457 180.174 18.5927C180.251 18.7285 180.353 18.8348 180.481 18.9116C180.609 18.9859 180.754 19.023 180.915 19.023ZM181.772 19.1267V18.4275L181.807 18.124L181.768 17.8205V16.276H181.895V19.1267H181.772Z" fill="white"/>
<path d="M185.087 19.1383C184.89 19.1383 184.716 19.096 184.565 19.0115C184.414 18.9244 184.294 18.804 184.207 18.6503C184.12 18.4967 184.077 18.3225 184.077 18.1278C184.077 17.9306 184.116 17.7564 184.196 17.6053C184.278 17.4542 184.389 17.3351 184.53 17.248C184.674 17.1609 184.835 17.1174 185.014 17.1174C185.191 17.1174 185.35 17.1596 185.491 17.2442C185.634 17.3287 185.745 17.4465 185.825 17.5976C185.907 17.7462 185.948 17.9178 185.948 18.1125C185.948 18.1176 185.948 18.124 185.948 18.1317C185.948 18.1368 185.948 18.1419 185.948 18.147H184.161V18.0433H185.879L185.829 18.1048C185.829 17.9383 185.793 17.7897 185.721 17.6591C185.652 17.5259 185.556 17.4222 185.433 17.3479C185.31 17.2711 185.17 17.2326 185.014 17.2326C184.858 17.2326 184.718 17.2711 184.595 17.3479C184.473 17.4222 184.375 17.5259 184.303 17.6591C184.234 17.7897 184.2 17.9396 184.2 18.1086V18.1317C184.2 18.3058 184.238 18.4608 184.315 18.5965C184.392 18.7297 184.497 18.8348 184.63 18.9116C184.763 18.9859 184.916 19.023 185.087 19.023C185.218 19.023 185.341 18.9987 185.456 18.95C185.574 18.9013 185.671 18.8271 185.748 18.7272L185.829 18.8117C185.739 18.9193 185.629 19.0012 185.498 19.0576C185.37 19.1114 185.233 19.1383 185.087 19.1383Z" fill="white"/>
<path d="M188.61 19.1383C188.446 19.1383 188.292 19.1139 188.149 19.0653C188.005 19.014 187.896 18.95 187.822 18.8732L187.884 18.7733C187.958 18.8399 188.059 18.8988 188.187 18.95C188.315 19.0012 188.457 19.0269 188.613 19.0269C188.836 19.0269 188.996 18.9884 189.094 18.9116C189.194 18.8348 189.244 18.7349 189.244 18.6119C189.244 18.5223 189.219 18.4518 189.171 18.4006C189.122 18.3494 189.058 18.3097 188.978 18.2815C188.899 18.2533 188.811 18.2316 188.713 18.2162C188.619 18.1983 188.523 18.1791 188.425 18.1586C188.328 18.1355 188.24 18.1061 188.16 18.0702C188.081 18.0318 188.017 17.9793 187.968 17.9127C187.919 17.8461 187.895 17.7577 187.895 17.6476C187.895 17.5528 187.921 17.4657 187.972 17.3863C188.026 17.3069 188.106 17.2429 188.214 17.1942C188.321 17.143 188.459 17.1174 188.625 17.1174C188.748 17.1174 188.871 17.1366 188.994 17.175C189.119 17.2109 189.219 17.2595 189.294 17.321L189.228 17.4209C189.149 17.3569 189.055 17.3095 188.948 17.2787C188.843 17.248 188.734 17.2326 188.621 17.2326C188.414 17.2326 188.263 17.2723 188.168 17.3517C188.073 17.4311 188.026 17.5285 188.026 17.6437C188.026 17.7359 188.05 17.8102 188.099 17.8666C188.147 17.9204 188.211 17.9613 188.291 17.9895C188.37 18.0177 188.457 18.0407 188.552 18.0587C188.649 18.0766 188.745 18.0958 188.84 18.1163C188.937 18.1368 189.026 18.165 189.105 18.2008C189.185 18.2367 189.249 18.2866 189.297 18.3507C189.346 18.4147 189.37 18.5018 189.37 18.6119C189.37 18.7144 189.341 18.8066 189.282 18.8885C189.226 18.9679 189.141 19.0294 189.028 19.073C188.918 19.1165 188.779 19.1383 188.61 19.1383Z" fill="white"/>
<path d="M192.274 19.1383C192.077 19.1383 191.902 19.096 191.751 19.0115C191.6 18.9244 191.481 18.804 191.394 18.6503C191.307 18.4967 191.263 18.3225 191.263 18.1278C191.263 17.9306 191.303 17.7564 191.383 17.6053C191.464 17.4542 191.576 17.3351 191.717 17.248C191.86 17.1609 192.022 17.1174 192.201 17.1174C192.378 17.1174 192.536 17.1596 192.677 17.2442C192.821 17.3287 192.932 17.4465 193.012 17.5976C193.093 17.7462 193.134 17.9178 193.134 18.1125C193.134 18.1176 193.134 18.124 193.134 18.1317C193.134 18.1368 193.134 18.1419 193.134 18.147H191.348V18.0433H193.065L193.015 18.1048C193.015 17.9383 192.979 17.7897 192.908 17.6591C192.839 17.5259 192.743 17.4222 192.62 17.3479C192.497 17.2711 192.357 17.2326 192.201 17.2326C192.045 17.2326 191.905 17.2711 191.782 17.3479C191.659 17.4222 191.562 17.5259 191.49 17.6591C191.421 17.7897 191.386 17.9396 191.386 18.1086V18.1317C191.386 18.3058 191.425 18.4608 191.502 18.5965C191.578 18.7297 191.683 18.8348 191.817 18.9116C191.95 18.9859 192.102 19.023 192.274 19.023C192.404 19.023 192.527 18.9987 192.643 18.95C192.761 18.9013 192.858 18.8271 192.935 18.7272L193.015 18.8117C192.926 18.9193 192.816 19.0012 192.685 19.0576C192.557 19.1114 192.42 19.1383 192.274 19.1383Z" fill="white"/>
<path d="M196.257 17.1174C196.421 17.1174 196.562 17.1494 196.68 17.2134C196.8 17.2775 196.894 17.3722 196.96 17.4977C197.027 17.6207 197.06 17.7731 197.06 17.9549V19.1267H196.933V17.9626C196.933 17.7244 196.873 17.5438 196.753 17.4209C196.633 17.298 196.463 17.2365 196.246 17.2365C196.079 17.2365 195.936 17.2698 195.815 17.3364C195.695 17.403 195.603 17.4977 195.539 17.6207C195.475 17.7436 195.443 17.8871 195.443 18.051V19.1267H195.316V17.1328H195.439V17.6937L195.424 17.6591C195.485 17.4926 195.586 17.3607 195.727 17.2634C195.871 17.166 196.047 17.1174 196.257 17.1174Z" fill="white"/>
<path d="M199.912 19.1267L199.001 17.1328H199.139L200.004 19.0499H199.946L200.814 17.1328H200.949L200.038 19.1267H199.912Z" fill="white"/>
<path d="M203.646 19.1383C203.459 19.1383 203.291 19.096 203.143 19.0115C202.997 18.9244 202.88 18.804 202.793 18.6503C202.708 18.4967 202.666 18.3225 202.666 18.1278C202.666 17.9306 202.708 17.7564 202.793 17.6053C202.88 17.4542 202.997 17.3351 203.143 17.248C203.291 17.1609 203.459 17.1174 203.646 17.1174C203.833 17.1174 204.001 17.1609 204.149 17.248C204.298 17.3351 204.414 17.4542 204.499 17.6053C204.583 17.7564 204.626 17.9306 204.626 18.1278C204.626 18.3225 204.583 18.4967 204.499 18.6503C204.414 18.804 204.298 18.9244 204.149 19.0115C204.001 19.096 203.833 19.1383 203.646 19.1383ZM203.646 19.023C203.81 19.023 203.956 18.9859 204.084 18.9116C204.214 18.8348 204.316 18.7285 204.387 18.5927C204.462 18.457 204.499 18.302 204.499 18.1278C204.499 17.9511 204.462 17.7961 204.387 17.6629C204.316 17.5272 204.214 17.4222 204.084 17.3479C203.956 17.2736 203.81 17.2365 203.646 17.2365C203.485 17.2365 203.34 17.2736 203.212 17.3479C203.084 17.4222 202.981 17.5272 202.904 17.6629C202.83 17.7961 202.793 17.9511 202.793 18.1278C202.793 18.302 202.83 18.457 202.904 18.5927C202.981 18.7285 203.084 18.8348 203.212 18.9116C203.34 18.9859 203.485 19.023 203.646 19.023Z" fill="white"/>
<path d="M206.809 19.1267V16.276H206.936V19.1267H206.809Z" fill="white"/>
<path d="M209.847 19.1267L208.937 17.1328H209.075L209.94 19.0499H209.882L210.75 17.1328H210.885L209.974 19.1267H209.847Z" fill="white"/>
<path d="M212.885 19.1267V17.1328H213.012V19.1267H212.885ZM212.946 16.6102C212.913 16.6102 212.884 16.5974 212.858 16.5718C212.832 16.5462 212.82 16.518 212.82 16.4873C212.82 16.4514 212.832 16.422 212.858 16.3989C212.884 16.3733 212.913 16.3605 212.946 16.3605C212.982 16.3605 213.012 16.3733 213.035 16.3989C213.06 16.422 213.073 16.4502 213.073 16.4835C213.073 16.5168 213.06 16.5462 213.035 16.5718C213.012 16.5974 212.982 16.6102 212.946 16.6102Z" fill="white"/>
<path d="M217.902 17.1174C218.063 17.1174 218.202 17.1494 218.317 17.2134C218.435 17.2775 218.526 17.3722 218.59 17.4977C218.654 17.6207 218.686 17.7731 218.686 17.9549V19.1267H218.559V17.9626C218.559 17.7244 218.5 17.5438 218.382 17.4209C218.267 17.298 218.104 17.2365 217.894 17.2365C217.736 17.2365 217.597 17.2698 217.479 17.3364C217.362 17.403 217.271 17.4977 217.207 17.6207C217.145 17.7436 217.114 17.8871 217.114 18.051V19.1267H216.988V17.9626C216.988 17.7244 216.93 17.5438 216.815 17.4209C216.7 17.298 216.537 17.2365 216.327 17.2365C216.165 17.2365 216.026 17.2698 215.908 17.3364C215.793 17.403 215.703 17.4977 215.639 17.6207C215.578 17.7436 215.547 17.8871 215.547 18.051V19.1267H215.42V17.1328H215.543V17.6898L215.528 17.6553C215.587 17.4913 215.685 17.3607 215.824 17.2634C215.962 17.166 216.132 17.1174 216.335 17.1174C216.539 17.1174 216.708 17.1686 216.842 17.2711C216.977 17.3735 217.062 17.5272 217.095 17.7321L217.061 17.7167C217.112 17.54 217.21 17.3966 217.356 17.2864C217.502 17.1737 217.684 17.1174 217.902 17.1174Z" fill="white"/>
<path d="M221.857 19.1383C221.66 19.1383 221.486 19.096 221.335 19.0115C221.183 18.9244 221.064 18.804 220.977 18.6503C220.89 18.4967 220.847 18.3225 220.847 18.1278C220.847 17.9306 220.886 17.7564 220.966 17.6053C221.048 17.4542 221.159 17.3351 221.3 17.248C221.443 17.1609 221.605 17.1174 221.784 17.1174C221.961 17.1174 222.12 17.1596 222.26 17.2442C222.404 17.3287 222.515 17.4465 222.595 17.5976C222.677 17.7462 222.718 17.9178 222.718 18.1125C222.718 18.1176 222.718 18.124 222.718 18.1317C222.718 18.1368 222.718 18.1419 222.718 18.147H220.931V18.0433H222.648L222.599 18.1048C222.599 17.9383 222.563 17.7897 222.491 17.6591C222.422 17.5259 222.326 17.4222 222.203 17.3479C222.08 17.2711 221.94 17.2326 221.784 17.2326C221.628 17.2326 221.488 17.2711 221.365 17.3479C221.242 17.4222 221.145 17.5259 221.073 17.6591C221.004 17.7897 220.97 17.9396 220.97 18.1086V18.1317C220.97 18.3058 221.008 18.4608 221.085 18.5965C221.162 18.7297 221.267 18.8348 221.4 18.9116C221.533 18.9859 221.685 19.023 221.857 19.023C221.988 19.023 222.111 18.9987 222.226 18.95C222.344 18.9013 222.441 18.8271 222.518 18.7272L222.599 18.8117C222.509 18.9193 222.399 19.0012 222.268 19.0576C222.14 19.1114 222.003 19.1383 221.857 19.1383Z" fill="white"/>
<path d="M225.84 17.1174C226.004 17.1174 226.145 17.1494 226.263 17.2134C226.383 17.2775 226.477 17.3722 226.544 17.4977C226.61 17.6207 226.643 17.7731 226.643 17.9549V19.1267H226.517V17.9626C226.517 17.7244 226.456 17.5438 226.336 17.4209C226.216 17.298 226.047 17.2365 225.829 17.2365C225.662 17.2365 225.519 17.2698 225.399 17.3364C225.278 17.403 225.186 17.4977 225.122 17.6207C225.058 17.7436 225.026 17.8871 225.026 18.051V19.1267H224.899V17.1328H225.022V17.6937L225.007 17.6591C225.068 17.4926 225.169 17.3607 225.31 17.2634C225.454 17.166 225.63 17.1174 225.84 17.1174Z" fill="white"/>
<path d="M229.571 19.1383C229.407 19.1383 229.281 19.0922 229.194 19C229.107 18.9077 229.064 18.7835 229.064 18.6273V16.6948H229.19V18.6081C229.19 18.7438 229.224 18.8476 229.29 18.9193C229.357 18.991 229.454 19.0269 229.582 19.0269C229.713 19.0269 229.82 18.9871 229.905 18.9077L229.97 19C229.922 19.0461 229.861 19.0806 229.79 19.1037C229.718 19.1267 229.645 19.1383 229.571 19.1383ZM228.687 17.2442V17.1328H229.847V17.2442H228.687Z" fill="white"/>
<path d="M232.768 19.1383C232.581 19.1383 232.413 19.096 232.264 19.0115C232.118 18.9244 232.002 18.804 231.915 18.6503C231.83 18.4967 231.788 18.3225 231.788 18.1278C231.788 17.9306 231.83 17.7564 231.915 17.6053C232.002 17.4542 232.118 17.3351 232.264 17.248C232.413 17.1609 232.581 17.1174 232.768 17.1174C232.955 17.1174 233.122 17.1609 233.271 17.248C233.419 17.3351 233.536 17.4542 233.62 17.6053C233.705 17.7564 233.747 17.9306 233.747 18.1278C233.747 18.3225 233.705 18.4967 233.62 18.6503C233.536 18.804 233.419 18.9244 233.271 19.0115C233.122 19.096 232.955 19.1383 232.768 19.1383ZM232.768 19.023C232.931 19.023 233.077 18.9859 233.206 18.9116C233.336 18.8348 233.437 18.7285 233.509 18.5927C233.583 18.457 233.62 18.302 233.62 18.1278C233.62 17.9511 233.583 17.7961 233.509 17.6629C233.437 17.5272 233.336 17.4222 233.206 17.3479C233.077 17.2736 232.931 17.2365 232.768 17.2365C232.606 17.2365 232.461 17.2736 232.333 17.3479C232.205 17.4222 232.103 17.5272 232.026 17.6629C231.952 17.7961 231.915 17.9511 231.915 18.1278C231.915 18.302 231.952 18.457 232.026 18.5927C232.103 18.7285 232.205 18.8348 232.333 18.9116C232.461 18.9859 232.606 19.023 232.768 19.023Z" fill="white"/>
<path d="M238.839 19.1267L238.074 17.1328H238.197L238.919 19.0499H238.865L239.603 17.1328H239.718L240.452 19.0499H240.398L241.125 17.1328H241.248L240.487 19.1267H240.368L239.642 17.2519H239.68L238.95 19.1267H238.839Z" fill="white"/>
<path d="M243.998 19.1383C243.801 19.1383 243.627 19.096 243.476 19.0115C243.325 18.9244 243.206 18.804 243.119 18.6503C243.032 18.4967 242.988 18.3225 242.988 18.1278C242.988 17.9306 243.028 17.7564 243.107 17.6053C243.189 17.4542 243.3 17.3351 243.441 17.248C243.585 17.1609 243.746 17.1174 243.925 17.1174C244.102 17.1174 244.261 17.1596 244.402 17.2442C244.545 17.3287 244.657 17.4465 244.736 17.5976C244.818 17.7462 244.859 17.9178 244.859 18.1125C244.859 18.1176 244.859 18.124 244.859 18.1317C244.859 18.1368 244.859 18.1419 244.859 18.147H243.073V18.0433H244.79L244.74 18.1048C244.74 17.9383 244.704 17.7897 244.632 17.6591C244.563 17.5259 244.467 17.4222 244.344 17.3479C244.221 17.2711 244.082 17.2326 243.925 17.2326C243.769 17.2326 243.63 17.2711 243.507 17.3479C243.384 17.4222 243.286 17.5259 243.215 17.6591C243.145 17.7897 243.111 17.9396 243.111 18.1086V18.1317C243.111 18.3058 243.149 18.4608 243.226 18.5965C243.303 18.7297 243.408 18.8348 243.541 18.9116C243.674 18.9859 243.827 19.023 243.998 19.023C244.129 19.023 244.252 18.9987 244.367 18.95C244.485 18.9013 244.582 18.8271 244.659 18.7272L244.74 18.8117C244.65 18.9193 244.54 19.0012 244.41 19.0576C244.281 19.1114 244.144 19.1383 243.998 19.1383Z" fill="white"/>
<path d="M248.024 19.1383C247.845 19.1383 247.683 19.0973 247.54 19.0153C247.397 18.9308 247.283 18.8117 247.198 18.658C247.116 18.5043 247.075 18.3276 247.075 18.1278C247.075 17.9255 247.116 17.7487 247.198 17.5976C247.283 17.4465 247.397 17.3287 247.54 17.2442C247.683 17.1596 247.845 17.1174 248.024 17.1174C248.209 17.1174 248.374 17.1609 248.52 17.248C248.668 17.3351 248.785 17.4542 248.869 17.6053C248.956 17.7539 249 17.928 249 18.1278C249 18.325 248.956 18.5005 248.869 18.6542C248.785 18.8053 248.668 18.9244 248.52 19.0115C248.374 19.096 248.209 19.1383 248.024 19.1383ZM247.041 19.1267V16.276H247.167V17.8205L247.129 18.124L247.164 18.4275V19.1267H247.041ZM248.02 19.023C248.182 19.023 248.326 18.9859 248.454 18.9116C248.585 18.8348 248.688 18.7285 248.762 18.5927C248.836 18.457 248.873 18.302 248.873 18.1278C248.873 17.9511 248.836 17.7961 248.762 17.6629C248.688 17.5272 248.585 17.4222 248.454 17.3479C248.326 17.2736 248.182 17.2365 248.02 17.2365C247.856 17.2365 247.71 17.2736 247.582 17.3479C247.454 17.4222 247.353 17.5272 247.279 17.6629C247.205 17.7961 247.167 17.9511 247.167 18.1278C247.167 18.302 247.205 18.457 247.279 18.5927C247.353 18.7285 247.454 18.8348 247.582 18.9116C247.71 18.9859 247.856 19.023 248.02 19.023Z" fill="white"/>
<path d="M5.1415 3.848C6.3575 3.848 7.40817 4.07733 8.2935 4.536C9.1895 4.984 9.87217 5.62933 10.3415 6.472C10.8215 7.31467 11.0615 8.30667 11.0615 9.448C11.0615 10.5893 10.8215 11.5813 10.3415 12.424C9.87217 13.256 9.1895 13.896 8.2935 14.344C7.40817 14.7813 6.3575 15 5.1415 15H1.6695V3.848H5.1415ZM5.1415 13.8C6.5815 13.8 7.68017 13.4213 8.4375 12.664C9.19483 11.896 9.5735 10.824 9.5735 9.448C9.5735 8.06133 9.1895 6.97867 8.4215 6.2C7.66417 5.42133 6.57083 5.032 5.1415 5.032H3.1255V13.8H5.1415ZM20.982 10.28C20.982 10.5573 20.966 10.8507 20.934 11.16H13.926C13.9793 12.024 14.2727 12.7013 14.806 13.192C15.35 13.672 16.006 13.912 16.774 13.912C17.4033 13.912 17.926 13.768 18.342 13.48C18.7687 13.1813 19.0673 12.7867 19.238 12.296H20.806C20.5713 13.1387 20.102 13.8267 19.398 14.36C18.694 14.8827 17.8193 15.144 16.774 15.144C15.942 15.144 15.1953 14.9573 14.534 14.584C13.8833 14.2107 13.3713 13.6827 12.998 13C12.6247 12.3067 12.438 11.5067 12.438 10.6C12.438 9.69333 12.6193 8.89867 12.982 8.216C13.3447 7.53333 13.8513 7.01067 14.502 6.648C15.1633 6.27467 15.9207 6.088 16.774 6.088C17.606 6.088 18.342 6.26933 18.982 6.632C19.622 6.99467 20.1127 7.496 20.454 8.136C20.806 8.76533 20.982 9.48 20.982 10.28ZM19.478 9.976C19.478 9.42133 19.3553 8.94667 19.11 8.552C18.8647 8.14667 18.5287 7.84267 18.102 7.64C17.686 7.42667 17.222 7.32 16.71 7.32C15.974 7.32 15.3447 7.55467 14.822 8.024C14.31 8.49333 14.0167 9.144 13.942 9.976H19.478ZM26.0079 15.144C25.3359 15.144 24.7332 15.032 24.1999 14.808C23.6665 14.5733 23.2452 14.2533 22.9359 13.848C22.6265 13.432 22.4559 12.9573 22.4239 12.424H23.9279C23.9705 12.8613 24.1732 13.2187 24.5359 13.496C24.9092 13.7733 25.3945 13.912 25.9919 13.912C26.5465 13.912 26.9839 13.7893 27.3039 13.544C27.6239 13.2987 27.7839 12.9893 27.7839 12.616C27.7839 12.232 27.6132 11.9493 27.2719 11.768C26.9305 11.576 26.4025 11.3893 25.6879 11.208C25.0372 11.0373 24.5039 10.8667 24.0879 10.696C23.6825 10.5147 23.3305 10.2533 23.0319 9.912C22.7439 9.56 22.5999 9.10133 22.5999 8.536C22.5999 8.088 22.7332 7.67733 22.9999 7.304C23.2665 6.93067 23.6452 6.63733 24.1359 6.424C24.6265 6.2 25.1865 6.088 25.8159 6.088C26.7865 6.088 27.5705 6.33333 28.1679 6.824C28.7652 7.31467 29.0852 7.98667 29.1279 8.84H27.6719C27.6399 8.38133 27.4532 8.01333 27.1119 7.736C26.7812 7.45867 26.3332 7.32 25.7679 7.32C25.2452 7.32 24.8292 7.432 24.5199 7.656C24.2105 7.88 24.0559 8.17333 24.0559 8.536C24.0559 8.824 24.1465 9.064 24.3279 9.256C24.5199 9.43733 24.7545 9.58667 25.0319 9.704C25.3199 9.81067 25.7145 9.93333 26.2159 10.072C26.8452 10.2427 27.3572 10.4133 27.7519 10.584C28.1465 10.744 28.4825 10.9893 28.7599 11.32C29.0479 11.6507 29.1972 12.0827 29.2079 12.616C29.2079 13.096 29.0745 13.528 28.8079 13.912C28.5412 14.296 28.1625 14.6 27.6719 14.824C27.1919 15.0373 26.6372 15.144 26.0079 15.144ZM39.2633 10.28C39.2633 10.5573 39.2473 10.8507 39.2153 11.16H32.2073C32.2606 12.024 32.5539 12.7013 33.0873 13.192C33.6313 13.672 34.2873 13.912 35.0553 13.912C35.6846 13.912 36.2073 13.768 36.6233 13.48C37.0499 13.1813 37.3486 12.7867 37.5193 12.296H39.0873C38.8526 13.1387 38.3833 13.8267 37.6793 14.36C36.9753 14.8827 36.1006 15.144 35.0553 15.144C34.2233 15.144 33.4766 14.9573 32.8153 14.584C32.1646 14.2107 31.6526 13.6827 31.2793 13C30.9059 12.3067 30.7193 11.5067 30.7193 10.6C30.7193 9.69333 30.9006 8.89867 31.2633 8.216C31.6259 7.53333 32.1326 7.01067 32.7833 6.648C33.4446 6.27467 34.2019 6.088 35.0553 6.088C35.8873 6.088 36.6233 6.26933 37.2633 6.632C37.9033 6.99467 38.3939 7.496 38.7353 8.136C39.0873 8.76533 39.2633 9.48 39.2633 10.28ZM37.7593 9.976C37.7593 9.42133 37.6366 8.94667 37.3913 8.552C37.1459 8.14667 36.8099 7.84267 36.3833 7.64C35.9673 7.42667 35.5033 7.32 34.9913 7.32C34.2553 7.32 33.6259 7.55467 33.1033 8.024C32.5913 8.49333 32.2979 9.144 32.2233 9.976H37.7593ZM45.4571 6.072C46.5238 6.072 47.3878 6.39733 48.0491 7.048C48.7105 7.688 49.0411 8.616 49.0411 9.832V15H47.6011V10.04C47.6011 9.16533 47.3825 8.49867 46.9451 8.04C46.5078 7.57067 45.9105 7.336 45.1531 7.336C44.3851 7.336 43.7718 7.576 43.3131 8.056C42.8651 8.536 42.6411 9.23467 42.6411 10.152V15H41.1851V6.232H42.6411V7.48C42.9291 7.032 43.3185 6.68533 43.8091 6.44C44.3105 6.19467 44.8598 6.072 45.4571 6.072ZM54.6835 13.656L57.4035 6.232H58.9555L55.5155 15H53.8195L50.3795 6.232H51.9475L54.6835 13.656ZM64.2123 15.144C63.3909 15.144 62.6443 14.9573 61.9723 14.584C61.3109 14.2107 60.7883 13.6827 60.4043 13C60.0309 12.3067 59.8443 11.5067 59.8443 10.6C59.8443 9.704 60.0363 8.91467 60.4203 8.232C60.8149 7.53867 61.3483 7.01067 62.0203 6.648C62.6923 6.27467 63.4443 6.088 64.2763 6.088C65.1083 6.088 65.8603 6.27467 66.5323 6.648C67.2043 7.01067 67.7323 7.53333 68.1163 8.216C68.5109 8.89867 68.7083 9.69333 68.7083 10.6C68.7083 11.5067 68.5056 12.3067 68.1003 13C67.7056 13.6827 67.1669 14.2107 66.4843 14.584C65.8016 14.9573 65.0443 15.144 64.2123 15.144ZM64.2123 13.864C64.7349 13.864 65.2256 13.7413 65.6843 13.496C66.1429 13.2507 66.5109 12.8827 66.7883 12.392C67.0763 11.9013 67.2203 11.304 67.2203 10.6C67.2203 9.896 67.0816 9.29867 66.8043 8.808C66.5269 8.31733 66.1643 7.95467 65.7163 7.72C65.2683 7.47467 64.7829 7.352 64.2603 7.352C63.7269 7.352 63.2363 7.47467 62.7883 7.72C62.3509 7.95467 61.9989 8.31733 61.7323 8.808C61.4656 9.29867 61.3323 9.896 61.3323 10.6C61.3323 11.3147 61.4603 11.9173 61.7163 12.408C61.9829 12.8987 62.3349 13.2667 62.7723 13.512C63.2096 13.7467 63.6896 13.864 64.2123 13.864ZM72.0786 3.16V15H70.6226V3.16H72.0786ZM77.8241 13.656L80.5441 6.232H82.0961L78.6561 15H76.9601L73.5201 6.232H75.0881L77.8241 13.656ZM84.2809 4.808C84.0035 4.808 83.7689 4.712 83.5769 4.52C83.3849 4.328 83.2889 4.09333 83.2889 3.816C83.2889 3.53867 83.3849 3.304 83.5769 3.112C83.7689 2.92 84.0035 2.824 84.2809 2.824C84.5475 2.824 84.7715 2.92 84.9529 3.112C85.1449 3.304 85.2409 3.53867 85.2409 3.816C85.2409 4.09333 85.1449 4.328 84.9529 4.52C84.7715 4.712 84.5475 4.808 84.2809 4.808ZM84.9849 6.232V15H83.5289V6.232H84.9849ZM86.9224 10.584C86.9224 9.688 87.1037 8.904 87.4664 8.232C87.829 7.54933 88.325 7.02133 88.9544 6.648C89.5944 6.27467 90.309 6.088 91.0984 6.088C91.781 6.088 92.4157 6.248 93.0024 6.568C93.589 6.87733 94.037 7.288 94.3464 7.8V3.16H95.8184V15H94.3464V13.352C94.0584 13.8747 93.6317 14.3067 93.0664 14.648C92.501 14.9787 91.8397 15.144 91.0824 15.144C90.3037 15.144 89.5944 14.952 88.9544 14.568C88.325 14.184 87.829 13.6453 87.4664 12.952C87.1037 12.2587 86.9224 11.4693 86.9224 10.584ZM94.3464 10.6C94.3464 9.93867 94.213 9.36267 93.9464 8.872C93.6797 8.38133 93.317 8.008 92.8584 7.752C92.4104 7.48533 91.9144 7.352 91.3704 7.352C90.8264 7.352 90.3304 7.48 89.8824 7.736C89.4344 7.992 89.077 8.36533 88.8104 8.856C88.5437 9.34667 88.4104 9.92267 88.4104 10.584C88.4104 11.256 88.5437 11.8427 88.8104 12.344C89.077 12.8347 89.4344 13.2133 89.8824 13.48C90.3304 13.736 90.8264 13.864 91.3704 13.864C91.9144 13.864 92.4104 13.736 92.8584 13.48C93.317 13.2133 93.6797 12.8347 93.9464 12.344C94.213 11.8427 94.3464 11.2613 94.3464 10.6ZM102.103 15.144C101.282 15.144 100.535 14.9573 99.8629 14.584C99.2015 14.2107 98.6789 13.6827 98.2949 13C97.9215 12.3067 97.7349 11.5067 97.7349 10.6C97.7349 9.704 97.9269 8.91467 98.3109 8.232C98.7055 7.53867 99.2389 7.01067 99.9109 6.648C100.583 6.27467 101.335 6.088 102.167 6.088C102.999 6.088 103.751 6.27467 104.423 6.648C105.095 7.01067 105.623 7.53333 106.007 8.216C106.402 8.89867 106.599 9.69333 106.599 10.6C106.599 11.5067 106.396 12.3067 105.991 13C105.596 13.6827 105.058 14.2107 104.375 14.584C103.692 14.9573 102.935 15.144 102.103 15.144ZM102.103 13.864C102.626 13.864 103.116 13.7413 103.575 13.496C104.034 13.2507 104.402 12.8827 104.679 12.392C104.967 11.9013 105.111 11.304 105.111 10.6C105.111 9.896 104.972 9.29867 104.695 8.808C104.418 8.31733 104.055 7.95467 103.607 7.72C103.159 7.47467 102.674 7.352 102.151 7.352C101.618 7.352 101.127 7.47467 100.679 7.72C100.242 7.95467 99.8895 8.31733 99.6229 8.808C99.3562 9.29867 99.2229 9.896 99.2229 10.6C99.2229 11.3147 99.3509 11.9173 99.6069 12.408C99.8735 12.8987 100.226 13.2667 100.663 13.512C101.1 13.7467 101.58 13.864 102.103 13.864ZM114.235 7.848C114.523 7.34667 114.95 6.93067 115.515 6.6C116.091 6.25867 116.758 6.088 117.515 6.088C118.294 6.088 118.998 6.27467 119.627 6.648C120.267 7.02133 120.768 7.54933 121.131 8.232C121.494 8.904 121.675 9.688 121.675 10.584C121.675 11.4693 121.494 12.2587 121.131 12.952C120.768 13.6453 120.267 14.184 119.627 14.568C118.998 14.952 118.294 15.144 117.515 15.144C116.768 15.144 116.107 14.9787 115.531 14.648C114.966 14.3067 114.534 13.8853 114.235 13.384V19.16H112.779V6.232H114.235V7.848ZM120.187 10.584C120.187 9.92267 120.054 9.34667 119.787 8.856C119.52 8.36533 119.158 7.992 118.699 7.736C118.251 7.48 117.755 7.352 117.211 7.352C116.678 7.352 116.182 7.48533 115.723 7.752C115.275 8.008 114.912 8.38667 114.635 8.888C114.368 9.37867 114.235 9.94933 114.235 10.6C114.235 11.2613 114.368 11.8427 114.635 12.344C114.912 12.8347 115.275 13.2133 115.723 13.48C116.182 13.736 116.678 13.864 117.211 13.864C117.755 13.864 118.251 13.736 118.699 13.48C119.158 13.2133 119.52 12.8347 119.787 12.344C120.054 11.8427 120.187 11.256 120.187 10.584ZM127.415 15.144C126.594 15.144 125.847 14.9573 125.175 14.584C124.514 14.2107 123.991 13.6827 123.607 13C123.234 12.3067 123.047 11.5067 123.047 10.6C123.047 9.704 123.239 8.91467 123.623 8.232C124.018 7.53867 124.551 7.01067 125.223 6.648C125.895 6.27467 126.647 6.088 127.479 6.088C128.311 6.088 129.063 6.27467 129.735 6.648C130.407 7.01067 130.935 7.53333 131.319 8.216C131.714 8.89867 131.911 9.69333 131.911 10.6C131.911 11.5067 131.709 12.3067 131.303 13C130.909 13.6827 130.37 14.2107 129.687 14.584C129.005 14.9573 128.247 15.144 127.415 15.144ZM127.415 13.864C127.938 13.864 128.429 13.7413 128.887 13.496C129.346 13.2507 129.714 12.8827 129.991 12.392C130.279 11.9013 130.423 11.304 130.423 10.6C130.423 9.896 130.285 9.29867 130.007 8.808C129.73 8.31733 129.367 7.95467 128.919 7.72C128.471 7.47467 127.986 7.352 127.463 7.352C126.93 7.352 126.439 7.47467 125.991 7.72C125.554 7.95467 125.202 8.31733 124.935 8.808C124.669 9.29867 124.535 9.896 124.535 10.6C124.535 11.3147 124.663 11.9173 124.919 12.408C125.186 12.8987 125.538 13.2667 125.975 13.512C126.413 13.7467 126.893 13.864 127.415 13.864ZM135.282 7.656C135.538 7.15467 135.9 6.76533 136.37 6.488C136.85 6.21067 137.431 6.072 138.114 6.072V7.576H137.73C136.098 7.576 135.282 8.46133 135.282 10.232V15H133.826V6.232H135.282V7.656Z" fill="white"/>
</svg>
