<svg xmlns="http://www.w3.org/2000/svg" width="41" height="45" viewBox="0 0 41 45" fill="none">
  <path d="M22 1.25C22 0.55965 21.3284 0 20.5 0C19.6716 0 19 0.55965 19 1.25V3.75C19 4.44035 19.6716 5 20.5 5C21.3284 5 22 4.44035 22 3.75V1.25Z" fill="#1D1D1D"/>
  <path fill-rule="evenodd" clip-rule="evenodd" d="M10.0957 7C8.89696 7 7.78128 7.60671 7.13765 8.60862L0.548166 18.8665C-0.260825 20.1258 -0.167081 21.7564 0.781049 22.9166L17.7748 43.712C19.1781 45.4293 21.822 45.4293 23.2251 43.712L40.219 22.9166C41.1671 21.7564 41.2608 20.1258 40.4518 18.8665L33.8623 8.60862C33.2187 7.60671 32.103 7 30.9042 7H10.0957ZM18.5312 9.31556H10.4812L13.7012 18.0875L18.5312 9.31556ZM20.5 39.5332L15.07 22.0512H25.93L20.5 39.5332ZM22.5244 40.8894L28.3757 22.0511H37.9188L22.5244 40.8894ZM12.6243 22.0511L18.4756 40.8894L3.08117 22.0511H12.6243ZM27.2988 18.0875L22.4687 9.31556H30.5188L27.2988 18.0875ZM8.52494 10.7621L2.7605 19.7355H11.8189L8.52494 10.7621ZM32.475 10.762L38.2395 19.7355H29.1811L32.475 10.762ZM25.5437 19.7356L20.5 10.5756L15.4563 19.7356H25.5437Z" fill="#1D1D1D"/>
  <path d="M26.68 1.34314C27.1067 1.80068 27.1067 2.54247 26.68 3.00001L25.135 4.65686C24.7084 5.11438 24.0166 5.11438 23.59 4.65686C23.1634 4.19933 23.1634 3.45753 23.59 3.00001L25.135 1.34314C25.5617 0.885619 26.2533 0.885619 26.68 1.34314ZM14.32 3.00001C13.8933 2.54247 13.8933 1.80068 14.32 1.34314C14.7467 0.885619 15.4383 0.885619 15.865 1.34314L17.41 3.00001C17.8366 3.45753 17.8366 4.19933 17.41 4.65686C16.9834 5.11438 16.2916 5.11438 15.865 4.65686L14.32 3.00001Z" fill="#1D1D1D"/>
</svg>