<svg xmlns="http://www.w3.org/2000/svg" width="48" height="44" viewBox="0 0 48 44" fill="none">
  <path d="M44.2617 36.5604H43.7285V26.8357C45.2696 26.3787 46.3948 24.9546 46.3948 23.27C46.3948 21.2188 44.7204 19.5502 42.6619 19.5502C40.6035 19.5502 38.929 21.2188 38.929 23.27C38.929 24.4976 39.5316 25.5816 40.4542 26.2618C37.9798 27.9942 35.2014 29.2802 32.2684 30.1092L29.8473 17.228C29.7514 16.7232 29.3141 16.3618 28.7968 16.3618H20.2644C19.7685 16.3618 19.3365 16.7019 19.2245 17.1855L16.2222 30.2367C13.1079 29.4184 10.1535 28.0899 7.54049 26.2565C8.46306 25.587 9.06566 24.5029 9.06566 23.2754C9.06566 21.2242 7.39118 19.5556 5.33274 19.5556C3.2743 19.5556 1.59982 21.2242 1.59982 23.2754C1.59982 24.9546 2.72503 26.3787 4.26619 26.8411V36.5604H3.73292C1.67448 36.5604 0 38.229 0 40.2802C0 42.3314 1.67448 44 3.73292 44H6.93256C8.991 44 10.6655 42.3314 10.6655 40.2802C10.6655 38.229 8.991 36.5604 6.93256 36.5604H6.39929V28.0633C9.21498 30.0188 12.3986 31.4324 15.7476 32.2985L13.3585 42.6981C13.2839 43.0116 13.3638 43.3464 13.5665 43.5961C13.7691 43.8512 14.0784 43.9947 14.3984 43.9947H33.5963C33.9109 43.9947 34.2149 43.8565 34.4175 43.6121C34.6202 43.3676 34.7055 43.0488 34.6468 42.7353L32.663 32.187C35.8627 31.3101 38.897 29.9338 41.6007 28.0633V36.5604H41.0674C39.009 36.5604 37.3345 38.229 37.3345 40.2802C37.3345 42.3314 39.009 44 41.0674 44H44.2671C46.3255 44 48 42.3314 48 40.2802C48 38.229 46.3202 36.5604 44.2617 36.5604ZM8.53238 40.2802C8.53238 41.157 7.81246 41.8744 6.93256 41.8744H3.73292C2.85302 41.8744 2.1331 41.157 2.1331 40.2802C2.1331 39.4034 2.85302 38.686 3.73292 38.686H6.93256C7.81246 38.686 8.53238 39.3981 8.53238 40.2802ZM3.73292 23.2754C3.73292 22.3986 4.45284 21.6812 5.33274 21.6812C6.21264 21.6812 6.93256 22.3986 6.93256 23.2754C6.93256 24.1522 6.21264 24.8696 5.33274 24.8696C4.45284 24.8696 3.73292 24.1522 3.73292 23.2754ZM21.1123 18.4928H27.9116L30.194 30.6193C26.2957 31.4217 22.2162 31.4536 18.302 30.715L21.1123 18.4928ZM32.3111 41.8744H15.7369L17.8327 32.7662C19.8591 33.1488 21.9282 33.3454 23.9973 33.3454C26.2104 33.3454 28.4235 33.1222 30.5833 32.6865L32.3111 41.8744ZM42.6619 21.6812C43.5418 21.6812 44.2617 22.3986 44.2617 23.2754C44.2617 24.1522 43.5418 24.8696 42.6619 24.8696C41.782 24.8696 41.0621 24.1522 41.0621 23.2754C41.0621 22.3986 41.782 21.6812 42.6619 21.6812ZM44.2617 41.8744H41.0621C40.1822 41.8744 39.4623 41.157 39.4623 40.2802C39.4623 39.4034 40.1822 38.686 41.0621 38.686H44.2617C45.1416 38.686 45.8616 39.4034 45.8616 40.2802C45.8616 41.157 45.1416 41.8744 44.2617 41.8744ZM19.4858 8.23671L19.1499 10.1763C19.0112 10.9787 19.3365 11.7758 19.9978 12.2541C20.3711 12.5251 20.8084 12.6633 21.251 12.6633C21.5923 12.6633 21.9282 12.5836 22.2482 12.4188L23.9973 11.4995L25.7465 12.4135C26.4664 12.7908 27.3303 12.7324 27.9916 12.2541C28.6528 11.7758 28.9781 10.9787 28.8395 10.1763L28.5035 8.23671L29.922 6.86039C30.5086 6.29179 30.7166 5.45749 30.4606 4.68164C30.21 3.9058 29.5487 3.35314 28.7381 3.23623L26.781 2.95459L25.9065 1.19034C25.5492 0.457005 24.8132 0 23.9973 0C23.1814 0 22.4455 0.451691 22.0829 1.18502L21.2083 2.94927L19.2512 3.23092C18.4406 3.34783 17.7847 3.90048 17.5287 4.67633C17.2781 5.45217 17.4807 6.28647 18.0673 6.85507L19.4858 8.23671ZM21.5176 5.05362C22.2109 4.95266 22.8135 4.51691 23.1228 3.88985L23.992 2.11498L23.9973 2.1256L24.8719 3.88985C25.1812 4.51691 25.7838 4.95266 26.4771 5.05362L28.4342 5.33526L27.021 6.71159C26.5197 7.20048 26.2904 7.90193 26.4077 8.59275L26.7437 10.5324L24.9946 9.61304C24.376 9.28889 23.6294 9.28889 23.0108 9.61304L21.2616 10.5324L21.5976 8.59275C21.7149 7.90193 21.4856 7.20048 20.9843 6.71159L19.5712 5.33526L21.5176 5.05362Z" fill="#1D1D1D"/>
</svg>