<svg width="70" height="45" viewBox="0 0 70 45" fill="none" xmlns="http://www.w3.org/2000/svg">
<path id="Vector" d="M59.3813 12.6235L59.3818 12.6385C59.4241 14.0667 60.0951 15.2825 61.1368 16.1254L61.8965 16.7402L63.5513 17.163C63.5551 17.1638 63.5731 17.1669 63.6156 17.1695C63.6819 17.1735 63.7616 17.174 63.913 17.174C66.3881 17.174 68.5 15.1024 68.5 12.4525C68.5 9.75772 66.3502 7.6881 63.8263 7.73086L59.3813 12.6235ZM59.3813 12.6235L59.3806 12.6084M59.3813 12.6235L59.3806 12.6084M8.10345 16.7402L8.86322 16.1254C9.89784 15.2882 10.5761 14.0172 10.6183 12.6371L10.6184 12.6332C10.7053 10.0135 8.60448 7.77348 6.17455 7.73087L8.10345 16.7402ZM8.10345 16.7402L6.45558 17.1612C6.4533 17.1614 6.42711 17.1659 6.36826 17.1692C6.29059 17.1736 6.20552 17.174 6.08696 17.174C3.5734 17.174 1.5 15.0631 1.5 12.4525C1.5 9.74882 3.6024 7.68782 6.17447 7.73087L8.10345 16.7402ZM59.3806 12.6084C59.2524 10.0308 61.3734 7.77361 63.8259 7.73086L59.3806 12.6084ZM61.4043 18.1765L61.7662 17.6813L61.6878 18.4675L59.377 41.6251L59.3769 41.6251L59.3758 41.637C59.2767 42.7175 58.3942 43.5 57.3752 43.5H35H12.6248C11.6058 43.5 10.7233 42.7175 10.6242 41.637L10.623 41.6251L8.31223 18.4675L8.23379 17.6813L8.59572 18.1765C12.1177 22.9957 16.1344 26.2823 20.7418 25.5336C23.0064 25.1655 25.1608 23.8445 27.2305 21.6933C29.2995 19.5429 31.3637 16.4822 33.4567 12.4527L34.1528 11.1127L32.8082 10.4256C30.6075 9.3009 29.3051 6.43074 31.004 3.40465C31.7389 2.14732 33.179 1.463 34.8459 1.50905L34.8666 1.50962H34.8873H34.8876H34.8879H34.8883H34.8886H34.8889H34.8893H34.8896H34.8899H34.8903H34.8906H34.8909H34.8912H34.8916H34.8919H34.8922H34.8926H34.8929H34.8932H34.8936H34.8939H34.8942H34.8945H34.8949H34.8952H34.8955H34.8959H34.8962H34.8965H34.8968H34.8972H34.8975H34.8978H34.8982H34.8985H34.8988H34.8991H34.8995H34.8998H34.9001H34.9005H34.9008H34.9011H34.9014H34.9018H34.9021H34.9024H34.9028H34.9031H34.9034H34.9037H34.9041H34.9044H34.9047H34.905H34.9054H34.9057H34.906H34.9064H34.9067H34.907H34.9073H34.9077H34.908H34.9083H34.9086H34.909H34.9093H34.9096H34.9099H34.9103H34.9106H34.9109H34.9112H34.9115H34.9119H34.9122H34.9125H34.9128H34.9132H34.9135H34.9138H34.9141H34.9144H34.9148H34.9151H34.9154H34.9157H34.9161H34.9164H34.9167H34.917H34.9173H34.9177H34.918H34.9183H34.9186H34.9189H34.9192H34.9196H34.9199H34.9202H34.9205H34.9208H34.9212H34.9215H34.9218H34.9221H34.9224H34.9227H34.923H34.9234H34.9237H34.924H34.9243H34.9246H34.9249H34.9252H34.9256H34.9259H34.9262H34.9265H34.9268H34.9271H34.9274H34.9277H34.9281H34.9284H34.9287H34.929H34.9293H34.9296H34.9299H34.9302H34.9305H34.9308H34.9311H34.9314H34.9317H34.9321H34.9324H34.9327H34.933H34.9333H34.9336H34.9339H34.9342H34.9345H34.9348H34.9351H34.9354H34.9357H34.936H34.9363H34.9366H34.9369H34.9372H34.9375H34.9378H34.9381H34.9384H34.9387H34.939H34.9393H34.9396H34.9399H34.9402H34.9405H34.9408H34.9411H34.9414H34.9417H34.9419H34.9422H34.9425H34.9428H34.9431H34.9434H34.9437H34.944H34.9443H34.9446H34.9449H34.9451H34.9454H34.9457H34.946H34.9463H34.9466H34.9469H34.9471H34.9474H34.9477H34.948H34.9483H34.9486H34.9488H34.9491H34.9494H34.9497H34.95H34.9502H34.9505H34.9508H34.9511H34.9514H34.9516H34.9519H34.9522H34.9525H34.9527H34.953H34.9533H34.9536H34.9538H34.9541H34.9544H34.9547H34.9549H34.9552H34.9555H34.9557H34.956H34.9563H34.9565H34.9568H34.9571H34.9573H34.9576H34.9579H34.9581H34.9584H34.9587H34.9589H34.9592H34.9594H34.9597H34.96H34.9602H34.9605H34.9607H34.961H34.9612H34.9615H34.9618H34.962H34.9623H34.9625H34.9628H34.963H34.9633H34.9635H34.9638H34.964H34.9643H34.9645H34.9648H34.965H34.9653H34.9655H34.9658H34.966H34.9662H34.9665H34.9667H34.967H34.9672H34.9675H34.9677H34.9679H34.9682H34.9684H34.9687H34.9689H34.9691H34.9694H34.9696H34.9698H34.9701H34.9703H34.9705H34.9708H34.971H34.9712H34.9714H34.9717H34.9719H34.9721H34.9724H34.9726H34.9728H34.973H34.9733H34.9735H34.9737H34.9739H34.9741H34.9744H34.9746H34.9748H34.975H34.9752H34.9754H34.9757H34.9759H34.9761H34.9763H34.9765H34.9767H34.9769H34.9771H34.9774H34.9776H34.9778H34.978H34.9782H34.9784H34.9786H34.9788H34.979H34.9792H34.9794H34.9796H34.9798H34.98H34.9802H34.9804H34.9806H34.9808H34.981H34.9812H34.9814H34.9816H34.9817H34.9819H34.9821H34.9823H34.9825H34.9827H34.9829H34.9831H34.9832H34.9834H34.9836H34.9838H34.984H34.9841H34.9843H34.9845H34.9847H34.9849H34.985H34.9852H34.9854H34.9856H34.9857H34.9859H34.9861H34.9862H34.9864H34.9866H34.9867H34.9869H34.9871H34.9872H34.9874H34.9876H34.9877H34.9879H34.988H34.9882H34.9884H34.9885H34.9887H34.9888H34.989H34.9891H34.9893H34.9894H34.9896H34.9897H34.9899H34.99H34.9902H34.9903H34.9905H34.9906H34.9907H34.9909H34.991H34.9912H34.9913H34.9914H34.9916H34.9917H34.9918H34.992H34.9921H34.9922H34.9924H34.9925H34.9926H34.9928H34.9929H34.993H34.9931H34.9933H34.9934H34.9935H34.9936H34.9937H34.9939H34.994H34.9941H34.9942H34.9943H34.9944H34.9945H34.9946H34.9948H34.9949H34.995H34.9951H34.9952H34.9953H34.9954H34.9955H34.9956H34.9957H34.9958H34.9959H34.996H34.9961H34.9962H34.9963H34.9964H34.9965H34.9965H34.9966H34.9967H34.9968H34.9969H34.997H34.9971H34.9972H34.9972H34.9973H34.9974H34.9975H34.9975H34.9976H34.9977H34.9978H34.9978H34.9979H34.998H34.9981H34.9981H34.9982H34.9982H34.9983H34.9984H34.9984H34.9985H34.9986H34.9986H34.9987H34.9987H34.9988H34.9988H34.9989H34.9989H34.999H34.999H34.9991H34.9991H34.9992H34.9992H34.9993H34.9993H34.9994H34.9994H34.9994H34.9995H34.9995H34.9995H34.9996H34.9996H34.9996H34.9997H34.9997H34.9998H34.9998H34.9999H34.9999H34.9999H35H35H35.0003H35.0007H35.001H35.0013H35.0016H35.002H35.0023H35.0026H35.0029H35.0032H35.0036H35.0039H35.0042H35.0045H35.0048H35.0051H35.0054H35.0057H35.006H35.0064H35.0067H35.007H35.0073H35.0076H35.0079H35.0082H35.0085H35.0088H35.0091H35.0093H35.0096H35.0099H35.0102H35.0105H35.0108H35.0111H35.0114H35.0117H35.0119H35.0122H35.0125H35.0128H35.0131H35.0134H35.0136H35.0139H35.0142H35.0145H35.0147H35.015H35.0153H35.0155H35.0158H35.0161H35.0164H35.0166H35.0169H35.0171H35.0174H35.0177H35.0179H35.0182H35.0185H35.0187H35.019H35.0192H35.0195H35.0197H35.02H35.0202H35.0205H35.0207H35.021H35.0212H35.0215H35.0217H35.022H35.0222H35.0225H35.0227H35.023H35.0232H35.0234H35.0237H35.0239H35.0242H35.0244H35.0246H35.0249H35.0251H35.0253H35.0256H35.0258H35.026H35.0263H35.0265H35.0267H35.027H35.0272H35.0274H35.0276H35.0279H35.0281H35.0283H35.0285H35.0288H35.029H35.0292H35.0294H35.0296H35.0299H35.0301H35.0303H35.0305H35.0307H35.0309H35.0312H35.0314H35.0316H35.0318H35.032H35.0322H35.0324H35.0326H35.0328H35.0331H35.0333H35.0335H35.0337H35.0339H35.0341H35.0343H35.0345H35.0347H35.0349H35.0351H35.0353H35.0355H35.0357H35.0359H35.0361H35.0363H35.0365H35.0367H35.0369H35.0371H35.0373H35.0375H35.0377H35.0379H35.0381H35.0382H35.0384H35.0386H35.0388H35.039H35.0392H35.0394H35.0396H35.0398H35.04H35.0401H35.0403H35.0405H35.0407H35.0409H35.0411H35.0413H35.0414H35.0416H35.0418H35.042H35.0422H35.0424H35.0425H35.0427H35.0429H35.0431H35.0433H35.0434H35.0436H35.0438H35.044H35.0442H35.0443H35.0445H35.0447H35.0449H35.045H35.0452H35.0454H35.0456H35.0457H35.0459H35.0461H35.0463H35.0464H35.0466H35.0468H35.047H35.0471H35.0473H35.0475H35.0477H35.0478H35.048H35.0482H35.0483H35.0485H35.0487H35.0489H35.049H35.0492H35.0494H35.0495H35.0497H35.0499H35.05H35.0502H35.0504H35.0505H35.0507H35.0509H35.051H35.0512H35.0514H35.0516H35.0517H35.0519H35.0521H35.0522H35.0524H35.0526H35.0527H35.0529H35.0531H35.0532H35.0534H35.0536H35.0537H35.0539H35.054H35.0542H35.0544H35.0545H35.0547H35.0549H35.055H35.0552H35.0554H35.0555H35.0557H35.0559H35.056H35.0562H35.0564H35.0565H35.0567H35.0569H35.057H35.0572H35.0574H35.0575H35.0577H35.0578H35.058H35.0582H35.0583H35.0585H35.0587H35.0588H35.059H35.0592H35.0593H35.0595H35.0597H35.0598H35.06H35.0602H35.0603H35.0605H35.0607H35.0608H35.061H35.0612H35.0613H35.0615H35.0617H35.0618H35.062H35.0622H35.0623H35.0625H35.0627H35.0629H35.063H35.0632H35.0634H35.0635H35.0637H35.0639H35.064H35.0642H35.0644H35.0645H35.0647H35.0649H35.0651H35.0652H35.0654H35.0656H35.0658H35.0659H35.0661H35.0663H35.0664H35.0666H35.0668H35.067H35.0671H35.0673H35.0675H35.0677H35.0679H35.068H35.0682H35.0684H35.0686H35.0687H35.0689H35.0691H35.0693H35.0695H35.0696H35.0698H35.07H35.0702H35.0704H35.0705H35.0707H35.0709H35.0711H35.0713H35.0715H35.0716H35.0718H35.072H35.0722H35.0724H35.0726H35.0728H35.073H35.0731H35.0733H35.0735H35.0737H35.0739H35.0741H35.0743H35.0745H35.0747H35.0749H35.0751H35.0753H35.0754H35.0756H35.0758H35.076H35.0762H35.0764H35.0766H35.0768H35.077H35.0772H35.0774H35.0776H35.0778H35.078H35.0782H35.0784H35.0786H35.0788H35.0791H35.0793H35.0795H35.0797H35.0799H35.0801H35.0803H35.0805H35.0807H35.0809H35.0811H35.0814H35.0816H35.0818H35.082H35.0822H35.0824H35.0826H35.0829H35.0831H35.0833H35.0835H35.0837H35.084H35.0842H35.0844H35.0846H35.0849H35.0851H35.0853H35.0855H35.0858H35.086H35.0862H35.0864H35.0867H35.0869H35.0871H35.0874H35.0876H35.0878H35.0881H35.0883H35.0886H35.0888H35.089H35.0893H35.0895H35.0898H35.09H35.0902H35.0905H35.0907H35.091H35.0912H35.0915H35.0917H35.092H35.0922H35.0925H35.0927H35.093H35.0932H35.0935H35.0938H35.094H35.0943H35.0945H35.0948H35.095H35.0953H35.0956H35.0958H35.0961H35.0964H35.0966H35.0969H35.0972H35.0974H35.0977H35.098H35.0983H35.0985H35.0988H35.0991H35.0994H35.0996H35.0999H35.1002H35.1005H35.1008H35.1011H35.1013H35.1016H35.1019H35.1022H35.1025H35.1028H35.1031H35.1034H35.1037H35.104H35.1043H35.1046H35.1049H35.1052H35.1055H35.1058H35.1061H35.1064H35.1067H35.107H35.1073H35.1076H35.1079H35.1082H35.1085H35.1088H35.1092H35.1095H35.1098H35.1101H35.1104H35.1108H35.1111H35.1114H35.1117H35.1121H35.1124H35.1127H35.1541L35.1955 1.50734C36.8267 1.41721 38.3016 2.14319 38.9838 3.38272L38.9874 3.38923L38.991 3.3957C40.6975 6.42507 39.3947 9.29979 37.1918 10.4256L35.8472 11.1127L36.5433 12.4527C38.6363 16.4822 40.7005 19.5429 42.7695 21.6933C44.8392 23.8445 46.9936 25.1655 49.2582 25.5336C53.8656 26.2823 57.8823 22.9957 61.4043 18.1765Z" stroke="#1D1D1D" stroke-width="3"/>
</svg>
