<svg width="48" height="48" viewBox="0 0 48 48" fill="none" xmlns="http://www.w3.org/2000/svg">
<path d="M33 0H15C11.0218 0 7.20644 1.58035 4.3934 4.3934C1.58035 7.20644 0 11.0218 0 15L0 33C0 36.9782 1.58035 40.7936 4.3934 43.6066C7.20644 46.4196 11.0218 48 15 48H33C36.9782 48 40.7936 46.4196 43.6066 43.6066C46.4196 40.7936 48 36.9782 48 33V15C48 11.0218 46.4196 7.20644 43.6066 4.3934C40.7936 1.58035 36.9782 0 33 0ZM43.5 33C43.5 38.79 38.79 43.5 33 43.5H15C9.21 43.5 4.5 38.79 4.5 33V15C4.5 9.21 9.21 4.5 15 4.5H33C38.79 4.5 43.5 9.21 43.5 15V33Z" fill="url(#paint0_linear_161_6)"/>
<path d="M24 12C20.8174 12 17.7652 13.2643 15.5147 15.5147C13.2643 17.7652 12 20.8174 12 24C12 27.1826 13.2643 30.2348 15.5147 32.4853C17.7652 34.7357 20.8174 36 24 36C27.1826 36 30.2348 34.7357 32.4853 32.4853C34.7357 30.2348 36 27.1826 36 24C36 20.8174 34.7357 17.7652 32.4853 15.5147C30.2348 13.2643 27.1826 12 24 12ZM24 31.5C22.0116 31.4976 20.1053 30.7067 18.6993 29.3007C17.2933 27.8947 16.5024 25.9884 16.5 24C16.5 19.863 19.866 16.5 24 16.5C28.134 16.5 31.5 19.863 31.5 24C31.5 28.134 28.134 31.5 24 31.5Z" fill="url(#paint1_linear_161_6)"/>
<path d="M36.9 12.699C37.7831 12.699 38.499 11.9831 38.499 11.1C38.499 10.2169 37.7831 9.50098 36.9 9.50098C36.0169 9.50098 35.301 10.2169 35.301 11.1C35.301 11.9831 36.0169 12.699 36.9 12.699Z" fill="url(#paint2_linear_161_6)"/>
<defs>
<linearGradient id="paint0_linear_161_6" x1="4.392" y1="43.608" x2="43.608" y2="4.392" gradientUnits="userSpaceOnUse">
<stop stop-color="#FFC107"/>
<stop offset="0.507" stop-color="#F44336"/>
<stop offset="0.99" stop-color="#9C27B0"/>
</linearGradient>
<linearGradient id="paint1_linear_161_6" x1="15.516" y1="32.484" x2="32.484" y2="15.516" gradientUnits="userSpaceOnUse">
<stop stop-color="#FFC107"/>
<stop offset="0.507" stop-color="#F44336"/>
<stop offset="0.99" stop-color="#9C27B0"/>
</linearGradient>
<linearGradient id="paint2_linear_161_6" x1="35.769" y1="12.231" x2="38.031" y2="9.96898" gradientUnits="userSpaceOnUse">
<stop stop-color="#FFC107"/>
<stop offset="0.507" stop-color="#F44336"/>
<stop offset="0.99" stop-color="#9C27B0"/>
</linearGradient>
</defs>
</svg>
