<svg width="198" height="69" viewBox="0 0 198 69" fill="none" xmlns="http://www.w3.org/2000/svg">
<path d="M40.2761 67.0213C40.2761 67.3544 40.2191 67.6471 40.1053 67.8993C39.9914 68.1515 39.8328 68.3484 39.6295 68.4899C39.4263 68.6304 39.1905 68.7007 38.9223 68.7007C38.6531 68.7007 38.4168 68.6299 38.2135 68.4884C38.0103 68.3468 37.8517 68.1499 37.7378 67.8977C37.625 67.6455 37.5686 67.3533 37.5686 67.0213C37.5686 66.6882 37.6255 66.396 37.7394 66.1449C37.8533 65.8926 38.0119 65.6957 38.2151 65.5542C38.4184 65.4127 38.6541 65.3419 38.9223 65.3419C39.1905 65.3419 39.4263 65.4127 39.6295 65.5542C39.8328 65.6947 39.9914 65.891 40.1053 66.1433C40.2191 66.3955 40.2761 66.6882 40.2761 67.0213ZM40.1739 67.0213C40.1739 66.7084 40.1212 66.4338 40.0159 66.1975C39.9105 65.9602 39.7636 65.7756 39.5753 65.6436C39.3879 65.5106 39.1703 65.4441 38.9223 65.4441C38.6754 65.4441 38.4578 65.51 38.2694 65.642C38.0821 65.7729 37.9352 65.957 37.8288 66.1944C37.7235 66.4306 37.6708 66.7063 37.6708 67.0213C37.6708 67.332 37.7229 67.6061 37.8272 67.8434C37.9315 68.0797 38.0773 68.2649 38.2646 68.399C38.453 68.532 38.6722 68.5985 38.9223 68.5985C39.1703 68.5985 39.3885 68.5325 39.5769 68.4006C39.7652 68.2675 39.9121 68.0829 40.0175 67.8466C40.1228 67.6093 40.175 67.3342 40.1739 67.0213Z" fill="white"/>
<path d="M48.6701 68.656V65.3866H48.7723V68.5538H50.4069V68.656H48.6701Z" fill="white"/>
<path d="M54.2965 68.656H54.1879L55.3565 65.3866H55.4969L56.6655 68.656H56.5569L55.4331 65.5143H55.4203L54.2965 68.656ZM54.6668 67.4491H56.1866V67.5513H54.6668V67.4491Z" fill="white"/>
<path d="M61.3244 68.656H60.4688V65.3866H61.4075C61.7086 65.3866 61.9662 65.4515 62.1801 65.5813C62.3951 65.7101 62.5595 65.8953 62.6734 66.1369C62.7883 66.3785 62.8453 66.669 62.8442 67.0085C62.8431 67.3565 62.7825 67.6534 62.6622 67.8993C62.543 68.1441 62.3701 68.3314 62.1434 68.4612C61.9178 68.5911 61.6448 68.656 61.3244 68.656ZM60.571 68.5538H61.3244C61.6267 68.5538 61.8837 68.4926 62.0955 68.3702C62.3073 68.2468 62.468 68.0696 62.5776 67.8386C62.6883 67.6077 62.7431 67.331 62.742 67.0085C62.741 66.6903 62.6878 66.4178 62.5824 66.1912C62.4781 65.9645 62.327 65.791 62.129 65.6707C61.9311 65.5494 61.6906 65.4888 61.4075 65.4888H60.571V68.5538Z" fill="white"/>
<path d="M69.3514 67.0213C69.3514 67.3544 69.2944 67.6471 69.1806 67.8993C69.0667 68.1515 68.9081 68.3484 68.7048 68.4899C68.5016 68.6304 68.2658 68.7007 67.9976 68.7007C67.7284 68.7007 67.4921 68.6299 67.2889 68.4884C67.0856 68.3468 66.927 68.1499 66.8131 67.8977C66.7003 67.6455 66.6439 67.3533 66.6439 67.0213C66.6439 66.6882 66.7009 66.396 66.8147 66.1449C66.9286 65.8926 67.0872 65.6957 67.2904 65.5542C67.4937 65.4127 67.7295 65.3419 67.9976 65.3419C68.2658 65.3419 68.5016 65.4127 68.7048 65.5542C68.9081 65.6947 69.0667 65.891 69.1806 66.1433C69.2944 66.3955 69.3514 66.6882 69.3514 67.0213ZM69.2492 67.0213C69.2492 66.7084 69.1965 66.4338 69.0912 66.1975C68.9858 65.9602 68.8389 65.7756 68.6506 65.6436C68.4633 65.5106 68.2456 65.4441 67.9976 65.4441C67.7507 65.4441 67.5331 65.51 67.3447 65.642C67.1574 65.7729 67.0105 65.957 66.9041 66.1944C66.7988 66.4306 66.7461 66.7063 66.7461 67.0213C66.7461 67.332 66.7982 67.6061 66.9025 67.8434C67.0068 68.0797 67.1526 68.2649 67.3399 68.399C67.5283 68.532 67.7475 68.5985 67.9976 68.5985C68.2456 68.5985 68.4638 68.5325 68.6522 68.4006C68.8405 68.2675 68.9874 68.0829 69.0928 67.8466C69.1981 67.6093 69.2503 67.3342 69.2492 67.0213Z" fill="white"/>
<path d="M77.7454 68.656V65.3866H78.7032C78.8863 65.3866 79.048 65.4254 79.1885 65.5031C79.3301 65.5808 79.4408 65.6894 79.5206 65.8288C79.6015 65.9682 79.6419 66.1316 79.6419 66.3189C79.6419 66.5041 79.6015 66.6663 79.5206 66.8058C79.4408 66.9441 79.3301 67.0521 79.1885 67.1298C79.048 67.2065 78.8863 67.2448 78.7032 67.2448H77.7965V67.1426H78.7032C78.8671 67.1426 79.0119 67.1085 79.1374 67.0404C79.263 66.9723 79.3615 66.8765 79.4328 66.7531C79.5041 66.6296 79.5397 66.4849 79.5397 66.3189C79.5397 66.1518 79.5041 66.006 79.4328 65.8815C79.3615 65.7569 79.263 65.6606 79.1374 65.5925C79.0119 65.5233 78.8671 65.4888 78.7032 65.4888H77.8476V68.656H77.7454ZM78.9906 67.1681L79.7952 68.656H79.6802L78.8756 67.1681H78.9906Z" fill="white"/>
<path d="M85.9056 65.3866H86.0078V67.5513C86.0078 67.7726 85.9562 67.9706 85.8529 68.1451C85.7508 68.3186 85.6114 68.4559 85.4347 68.557C85.258 68.657 85.0574 68.7071 84.8329 68.7071C84.6104 68.7071 84.4103 68.6565 84.2326 68.5554C84.0549 68.4543 83.9144 68.317 83.8112 68.1435C83.7079 67.969 83.6569 67.7716 83.6579 67.5513V65.3866H83.7601V67.5513C83.7601 67.7535 83.8064 67.9339 83.899 68.0925C83.9926 68.251 84.1203 68.3761 84.2821 68.4676C84.4439 68.5591 84.6275 68.6049 84.8329 68.6049C85.0383 68.6049 85.2218 68.5591 85.3836 68.4676C85.5454 68.3761 85.6726 68.251 85.7651 68.0925C85.8588 67.9339 85.9056 67.7535 85.9056 67.5513V65.3866ZM84.7786 65.029L85.2256 64.3394H85.3533L84.8807 65.029H84.7786Z" fill="white"/>
<path d="M91.9259 66.2039C91.9099 65.9804 91.8243 65.7969 91.6689 65.6532C91.5146 65.5095 91.3108 65.4377 91.0575 65.4377C90.8914 65.4377 90.743 65.4696 90.6121 65.5334C90.4812 65.5973 90.3779 65.6851 90.3024 65.7969C90.2268 65.9075 90.189 66.0347 90.189 66.1784C90.189 66.2614 90.2029 66.338 90.2305 66.4083C90.2582 66.4785 90.3003 66.5429 90.3567 66.6014C90.4141 66.6589 90.486 66.711 90.5722 66.7579C90.6594 66.8036 90.7616 66.8446 90.8787 66.8808L91.249 66.9957C91.3906 67.0394 91.513 67.0883 91.6162 67.1426C91.7194 67.1969 91.8046 67.2581 91.8716 67.3262C91.9397 67.3932 91.9903 67.4683 92.0233 67.5513C92.0563 67.6332 92.0728 67.7248 92.0728 67.8259C92.0728 67.9961 92.0291 68.1478 91.9419 68.2808C91.8546 68.4139 91.7327 68.5182 91.5763 68.5937C91.4198 68.6693 91.2384 68.7071 91.0319 68.7071C90.8329 68.7071 90.6589 68.6725 90.5099 68.6033C90.3609 68.5331 90.2428 68.4367 90.1555 68.3143C90.0693 68.1909 90.0209 68.0493 90.0102 67.8897H90.1124C90.1231 68.0302 90.1672 68.1542 90.2449 68.2617C90.3226 68.3692 90.428 68.4532 90.561 68.5139C90.6951 68.5746 90.8521 68.6049 91.0319 68.6049C91.2192 68.6049 91.3831 68.5724 91.5236 68.5075C91.6652 68.4415 91.7748 68.35 91.8525 68.2329C91.9312 68.1159 91.9706 67.9802 91.9706 67.8259C91.9706 67.7088 91.9451 67.6061 91.894 67.5178C91.8429 67.4284 91.7625 67.3496 91.6529 67.2815C91.5433 67.2134 91.4002 67.1522 91.2235 67.0979L90.8531 66.983C90.5966 66.9021 90.4045 66.7951 90.2768 66.6621C90.1502 66.5291 90.0869 66.3678 90.0869 66.1784C90.0869 66.0177 90.1289 65.874 90.213 65.7474C90.2971 65.6197 90.412 65.5191 90.5578 65.4456C90.7047 65.3722 90.8712 65.3355 91.0575 65.3355C91.2448 65.3355 91.4092 65.3727 91.5508 65.4472C91.6923 65.5217 91.8046 65.6244 91.8876 65.7553C91.9706 65.8863 92.0174 66.0358 92.0281 66.2039H91.9259Z" fill="white"/>
<path d="M95.8394 65.4888V65.3866H98.0487V65.4888H96.9951V68.656H96.893V65.4888H95.8394Z" fill="white"/>
<path d="M102.082 65.3866V68.656H101.979V65.3866H102.082Z" fill="white"/>
<path d="M108.67 66.4083H108.562C108.541 66.2997 108.502 66.189 108.443 66.0762C108.385 65.9634 108.307 65.8591 108.21 65.7633C108.114 65.6675 107.999 65.5904 107.867 65.5319C107.735 65.4733 107.586 65.4441 107.419 65.4441C107.195 65.4441 106.988 65.5052 106.798 65.6276C106.608 65.749 106.455 65.9272 106.339 66.1624C106.224 66.3966 106.167 66.6828 106.167 67.0213C106.167 67.364 106.224 67.6524 106.339 67.8865C106.455 68.1207 106.608 68.2979 106.798 68.4181C106.988 68.5384 107.195 68.5985 107.419 68.5985C107.586 68.5985 107.735 68.5698 107.867 68.5123C107.999 68.4538 108.114 68.3771 108.21 68.2824C108.307 68.1866 108.385 68.0823 108.443 67.9695C108.502 67.8557 108.541 67.7439 108.562 67.6343H108.67C108.65 67.7492 108.609 67.869 108.549 67.9935C108.488 68.1169 108.406 68.2324 108.303 68.3399C108.2 68.4474 108.075 68.5346 107.928 68.6017C107.781 68.6677 107.611 68.7007 107.419 68.7007C107.15 68.7007 106.915 68.6304 106.711 68.4899C106.508 68.3495 106.35 68.1531 106.236 67.9009C106.122 67.6487 106.065 67.3555 106.065 67.0213C106.065 66.6871 106.122 66.3939 106.236 66.1417C106.35 65.8894 106.508 65.6931 106.711 65.5526C106.915 65.4121 107.15 65.3419 107.419 65.3419C107.611 65.3419 107.781 65.3749 107.928 65.4409C108.075 65.5068 108.2 65.5936 108.303 65.7011C108.406 65.8075 108.488 65.923 108.549 66.0475C108.609 66.1709 108.65 66.2912 108.67 66.4083Z" fill="white"/>
<path d="M115.168 67.0213C115.168 67.3544 115.111 67.6471 114.997 67.8993C114.883 68.1515 114.724 68.3484 114.521 68.4899C114.318 68.6304 114.082 68.7007 113.814 68.7007C113.545 68.7007 113.308 68.6299 113.105 68.4884C112.902 68.3468 112.743 68.1499 112.629 67.8977C112.517 67.6455 112.46 67.3533 112.46 67.0213C112.46 66.6882 112.517 66.396 112.631 66.1449C112.745 65.8926 112.904 65.6957 113.107 65.5542C113.31 65.4127 113.546 65.3419 113.814 65.3419C114.082 65.3419 114.318 65.4127 114.521 65.5542C114.724 65.6947 114.883 65.891 114.997 66.1433C115.111 66.3955 115.168 66.6882 115.168 67.0213ZM115.066 67.0213C115.066 66.7084 115.013 66.4338 114.908 66.1975C114.802 65.9602 114.655 65.7756 114.467 65.6436C114.28 65.5106 114.062 65.4441 113.814 65.4441C113.567 65.4441 113.349 65.51 113.161 65.642C112.974 65.7729 112.827 65.957 112.72 66.1944C112.615 66.4306 112.562 66.7063 112.562 67.0213C112.562 67.332 112.615 67.6061 112.719 67.8434C112.823 68.0797 112.969 68.2649 113.156 68.399C113.345 68.532 113.564 68.5985 113.814 68.5985C114.062 68.5985 114.28 68.5325 114.468 68.4006C114.657 68.2675 114.804 68.0829 114.909 67.8466C115.014 67.6093 115.067 67.3342 115.066 67.0213Z" fill="white"/>
<path d="M124.417 68.656H123.562V65.3866H124.5C124.802 65.3866 125.059 65.4515 125.273 65.5813C125.488 65.7101 125.652 65.8953 125.766 66.1369C125.881 66.3785 125.938 66.669 125.937 67.0085C125.936 67.3565 125.875 67.6534 125.755 67.8993C125.636 68.1441 125.463 68.3314 125.236 68.4612C125.011 68.5911 124.738 68.656 124.417 68.656ZM123.664 68.5538H124.417C124.72 68.5538 124.977 68.4926 125.188 68.3702C125.4 68.2468 125.561 68.0696 125.671 67.8386C125.781 67.6077 125.836 67.331 125.835 67.0085C125.834 66.6903 125.781 66.4178 125.675 66.1912C125.571 65.9645 125.42 65.791 125.222 65.6707C125.024 65.5494 124.783 65.4888 124.5 65.4888H123.664V68.5538Z" fill="white"/>
<path d="M132.444 67.0213C132.444 67.3544 132.387 67.6471 132.274 67.8993C132.16 68.1515 132.001 68.3484 131.798 68.4899C131.595 68.6304 131.359 68.7007 131.091 68.7007C130.821 68.7007 130.585 68.6299 130.382 68.4884C130.179 68.3468 130.02 68.1499 129.906 67.8977C129.793 67.6455 129.737 67.3533 129.737 67.0213C129.737 66.6882 129.794 66.396 129.908 66.1449C130.022 65.8926 130.18 65.6957 130.383 65.5542C130.587 65.4127 130.822 65.3419 131.091 65.3419C131.359 65.3419 131.595 65.4127 131.798 65.5542C132.001 65.6947 132.16 65.891 132.274 66.1433C132.387 66.3955 132.444 66.6882 132.444 67.0213ZM132.342 67.0213C132.342 66.7084 132.289 66.4338 132.184 66.1975C132.079 65.9602 131.932 65.7756 131.744 65.6436C131.556 65.5106 131.339 65.4441 131.091 65.4441C130.844 65.4441 130.626 65.51 130.438 65.642C130.25 65.7729 130.103 65.957 129.997 66.1944C129.892 66.4306 129.839 66.7063 129.839 67.0213C129.839 67.332 129.891 67.6061 129.995 67.8434C130.1 68.0797 130.246 68.2649 130.433 68.399C130.621 68.532 130.84 68.5985 131.091 68.5985C131.339 68.5985 131.557 68.5325 131.745 68.4006C131.933 68.2675 132.08 68.0829 132.186 67.8466C132.291 67.6093 132.343 67.3342 132.342 67.0213Z" fill="white"/>
<path d="M140.838 68.656V65.3866H140.941V68.5538H142.575V68.656H140.838Z" fill="white"/>
<path d="M148.761 65.3866H148.864V67.5513C148.864 67.7726 148.812 67.9706 148.709 68.1451C148.607 68.3186 148.467 68.4559 148.291 68.557C148.114 68.657 147.913 68.7071 147.689 68.7071C147.466 68.7071 147.266 68.6565 147.088 68.5554C146.911 68.4543 146.77 68.317 146.667 68.1435C146.564 67.969 146.513 67.7716 146.514 67.5513V65.3866H146.616V67.5513C146.616 67.7535 146.662 67.9339 146.755 68.0925C146.849 68.251 146.976 68.3761 147.138 68.4676C147.3 68.5591 147.483 68.6049 147.689 68.6049C147.894 68.6049 148.078 68.5591 148.239 68.4676C148.401 68.3761 148.528 68.251 148.621 68.0925C148.715 67.9339 148.761 67.7535 148.761 67.5513V65.3866Z" fill="white"/>
<path d="M152.802 65.3866L153.83 66.9255H153.843L154.871 65.3866H154.999L153.901 67.0213L154.999 68.656H154.871L153.843 67.1171H153.83L152.802 68.656H152.675L153.773 67.0213L152.675 65.3866H152.802Z" fill="white"/>
<path d="M161.331 67.0213C161.331 67.3544 161.274 67.6471 161.16 67.8993C161.046 68.1515 160.888 68.3484 160.684 68.4899C160.481 68.6304 160.245 68.7007 159.977 68.7007C159.708 68.7007 159.472 68.6299 159.268 68.4884C159.065 68.3468 158.906 68.1499 158.793 67.8977C158.68 67.6455 158.623 67.3533 158.623 67.0213C158.623 66.6882 158.68 66.396 158.794 66.1449C158.908 65.8926 159.067 65.6957 159.27 65.5542C159.473 65.4127 159.709 65.3419 159.977 65.3419C160.245 65.3419 160.481 65.4127 160.684 65.5542C160.888 65.6947 161.046 65.891 161.16 66.1433C161.274 66.3955 161.331 66.6882 161.331 67.0213ZM161.229 67.0213C161.229 66.7084 161.176 66.4338 161.071 66.1975C160.965 65.9602 160.818 65.7756 160.63 65.6436C160.443 65.5106 160.225 65.4441 159.977 65.4441C159.73 65.4441 159.513 65.51 159.324 65.642C159.137 65.7729 158.99 65.957 158.884 66.1944C158.778 66.4306 158.726 66.7063 158.726 67.0213C158.726 67.332 158.778 67.6061 158.882 67.8434C158.986 68.0797 159.132 68.2649 159.319 68.399C159.508 68.532 159.727 68.5985 159.977 68.5985C160.225 68.5985 160.443 68.5325 160.632 68.4006C160.82 68.2675 160.967 68.0829 161.072 67.8466C161.178 67.6093 161.23 67.3342 161.229 67.0213Z" fill="white"/>
<path d="M40.2761 67.0213C40.2761 67.3544 40.2191 67.6471 40.1053 67.8993C39.9914 68.1515 39.8328 68.3484 39.6295 68.4899C39.4263 68.6304 39.1905 68.7007 38.9223 68.7007C38.6531 68.7007 38.4168 68.6299 38.2135 68.4884C38.0103 68.3468 37.8517 68.1499 37.7378 67.8977C37.625 67.6455 37.5686 67.3533 37.5686 67.0213C37.5686 66.6882 37.6255 66.396 37.7394 66.1449C37.8533 65.8926 38.0119 65.6957 38.2151 65.5542C38.4184 65.4127 38.6541 65.3419 38.9223 65.3419C39.1905 65.3419 39.4263 65.4127 39.6295 65.5542C39.8328 65.6947 39.9914 65.891 40.1053 66.1433C40.2191 66.3955 40.2761 66.6882 40.2761 67.0213ZM40.1739 67.0213C40.1739 66.7084 40.1212 66.4338 40.0159 66.1975C39.9105 65.9602 39.7636 65.7756 39.5753 65.6436C39.3879 65.5106 39.1703 65.4441 38.9223 65.4441C38.6754 65.4441 38.4578 65.51 38.2694 65.642C38.0821 65.7729 37.9352 65.957 37.8288 66.1944C37.7235 66.4306 37.6708 66.7063 37.6708 67.0213C37.6708 67.332 37.7229 67.6061 37.8272 67.8434C37.9315 68.0797 38.0773 68.2649 38.2646 68.399C38.453 68.532 38.6722 68.5985 38.9223 68.5985C39.1703 68.5985 39.3885 68.5325 39.5769 68.4006C39.7652 68.2675 39.9121 68.0829 40.0175 67.8466C40.1228 67.6093 40.175 67.3342 40.1739 67.0213Z" stroke="white" stroke-width="0.5"/>
<path d="M48.6701 68.656V65.3866H48.7723V68.5538H50.4069V68.656H48.6701Z" stroke="white" stroke-width="0.5"/>
<path d="M54.2965 68.656H54.1879L55.3565 65.3866H55.4969L56.6655 68.656H56.5569L55.4331 65.5143H55.4203L54.2965 68.656ZM54.6668 67.4491H56.1866V67.5513H54.6668V67.4491Z" stroke="white" stroke-width="0.5"/>
<path d="M61.3244 68.656H60.4688V65.3866H61.4075C61.7086 65.3866 61.9662 65.4515 62.1801 65.5813C62.3951 65.7101 62.5595 65.8953 62.6734 66.1369C62.7883 66.3785 62.8453 66.669 62.8442 67.0085C62.8431 67.3565 62.7825 67.6534 62.6622 67.8993C62.543 68.1441 62.3701 68.3314 62.1434 68.4612C61.9178 68.5911 61.6448 68.656 61.3244 68.656ZM60.571 68.5538H61.3244C61.6267 68.5538 61.8837 68.4926 62.0955 68.3702C62.3073 68.2468 62.468 68.0696 62.5776 67.8386C62.6883 67.6077 62.7431 67.331 62.742 67.0085C62.741 66.6903 62.6878 66.4178 62.5824 66.1912C62.4781 65.9645 62.327 65.791 62.129 65.6707C61.9311 65.5494 61.6906 65.4888 61.4075 65.4888H60.571V68.5538Z" stroke="white" stroke-width="0.5"/>
<path d="M69.3514 67.0213C69.3514 67.3544 69.2944 67.6471 69.1806 67.8993C69.0667 68.1515 68.9081 68.3484 68.7048 68.4899C68.5016 68.6304 68.2658 68.7007 67.9976 68.7007C67.7284 68.7007 67.4921 68.6299 67.2889 68.4884C67.0856 68.3468 66.927 68.1499 66.8131 67.8977C66.7003 67.6455 66.6439 67.3533 66.6439 67.0213C66.6439 66.6882 66.7009 66.396 66.8147 66.1449C66.9286 65.8926 67.0872 65.6957 67.2904 65.5542C67.4937 65.4127 67.7295 65.3419 67.9976 65.3419C68.2658 65.3419 68.5016 65.4127 68.7048 65.5542C68.9081 65.6947 69.0667 65.891 69.1806 66.1433C69.2944 66.3955 69.3514 66.6882 69.3514 67.0213ZM69.2492 67.0213C69.2492 66.7084 69.1965 66.4338 69.0912 66.1975C68.9858 65.9602 68.8389 65.7756 68.6506 65.6436C68.4633 65.5106 68.2456 65.4441 67.9976 65.4441C67.7507 65.4441 67.5331 65.51 67.3447 65.642C67.1574 65.7729 67.0105 65.957 66.9041 66.1944C66.7988 66.4306 66.7461 66.7063 66.7461 67.0213C66.7461 67.332 66.7982 67.6061 66.9025 67.8434C67.0068 68.0797 67.1526 68.2649 67.3399 68.399C67.5283 68.532 67.7475 68.5985 67.9976 68.5985C68.2456 68.5985 68.4638 68.5325 68.6522 68.4006C68.8405 68.2675 68.9874 68.0829 69.0928 67.8466C69.1981 67.6093 69.2503 67.3342 69.2492 67.0213Z" stroke="white" stroke-width="0.5"/>
<path d="M77.7454 68.656V65.3866H78.7032C78.8863 65.3866 79.048 65.4254 79.1885 65.5031C79.3301 65.5808 79.4408 65.6894 79.5206 65.8288C79.6015 65.9682 79.6419 66.1316 79.6419 66.3189C79.6419 66.5041 79.6015 66.6663 79.5206 66.8058C79.4408 66.9441 79.3301 67.0521 79.1885 67.1298C79.048 67.2065 78.8863 67.2448 78.7032 67.2448H77.7965V67.1426H78.7032C78.8671 67.1426 79.0119 67.1085 79.1374 67.0404C79.263 66.9723 79.3615 66.8765 79.4328 66.7531C79.5041 66.6296 79.5397 66.4849 79.5397 66.3189C79.5397 66.1518 79.5041 66.006 79.4328 65.8815C79.3615 65.7569 79.263 65.6606 79.1374 65.5925C79.0119 65.5233 78.8671 65.4888 78.7032 65.4888H77.8476V68.656H77.7454ZM78.9906 67.1681L79.7952 68.656H79.6802L78.8756 67.1681H78.9906Z" stroke="white" stroke-width="0.5"/>
<path d="M85.9056 65.3866H86.0078V67.5513C86.0078 67.7726 85.9562 67.9706 85.8529 68.1451C85.7508 68.3186 85.6114 68.4559 85.4347 68.557C85.258 68.657 85.0574 68.7071 84.8329 68.7071C84.6104 68.7071 84.4103 68.6565 84.2326 68.5554C84.0549 68.4543 83.9144 68.317 83.8112 68.1435C83.7079 67.969 83.6569 67.7716 83.6579 67.5513V65.3866H83.7601V67.5513C83.7601 67.7535 83.8064 67.9339 83.899 68.0925C83.9926 68.251 84.1203 68.3761 84.2821 68.4676C84.4439 68.5591 84.6275 68.6049 84.8329 68.6049C85.0383 68.6049 85.2218 68.5591 85.3836 68.4676C85.5454 68.3761 85.6726 68.251 85.7651 68.0925C85.8588 67.9339 85.9056 67.7535 85.9056 67.5513V65.3866ZM84.7786 65.029L85.2256 64.3394H85.3533L84.8807 65.029H84.7786Z" stroke="white" stroke-width="0.5"/>
<path d="M91.9259 66.2039C91.9099 65.9804 91.8243 65.7969 91.6689 65.6532C91.5146 65.5095 91.3108 65.4377 91.0575 65.4377C90.8914 65.4377 90.743 65.4696 90.6121 65.5334C90.4812 65.5973 90.3779 65.6851 90.3024 65.7969C90.2268 65.9075 90.189 66.0347 90.189 66.1784C90.189 66.2614 90.2029 66.338 90.2305 66.4083C90.2582 66.4785 90.3003 66.5429 90.3567 66.6014C90.4141 66.6589 90.486 66.711 90.5722 66.7579C90.6594 66.8036 90.7616 66.8446 90.8787 66.8808L91.249 66.9957C91.3906 67.0394 91.513 67.0883 91.6162 67.1426C91.7194 67.1969 91.8046 67.2581 91.8716 67.3262C91.9397 67.3932 91.9903 67.4683 92.0233 67.5513C92.0563 67.6332 92.0728 67.7248 92.0728 67.8259C92.0728 67.9961 92.0291 68.1478 91.9419 68.2808C91.8546 68.4139 91.7327 68.5182 91.5763 68.5937C91.4198 68.6693 91.2384 68.7071 91.0319 68.7071C90.8329 68.7071 90.6589 68.6725 90.5099 68.6033C90.3609 68.5331 90.2428 68.4367 90.1555 68.3143C90.0693 68.1909 90.0209 68.0493 90.0102 67.8897H90.1124C90.1231 68.0302 90.1672 68.1542 90.2449 68.2617C90.3226 68.3692 90.428 68.4532 90.561 68.5139C90.6951 68.5746 90.8521 68.6049 91.0319 68.6049C91.2192 68.6049 91.3831 68.5724 91.5236 68.5075C91.6652 68.4415 91.7748 68.35 91.8525 68.2329C91.9312 68.1159 91.9706 67.9802 91.9706 67.8259C91.9706 67.7088 91.9451 67.6061 91.894 67.5178C91.8429 67.4284 91.7625 67.3496 91.6529 67.2815C91.5433 67.2134 91.4002 67.1522 91.2235 67.0979L90.8531 66.983C90.5966 66.9021 90.4045 66.7951 90.2768 66.6621C90.1502 66.5291 90.0869 66.3678 90.0869 66.1784C90.0869 66.0177 90.1289 65.874 90.213 65.7474C90.2971 65.6197 90.412 65.5191 90.5578 65.4456C90.7047 65.3722 90.8712 65.3355 91.0575 65.3355C91.2448 65.3355 91.4092 65.3727 91.5508 65.4472C91.6923 65.5217 91.8046 65.6244 91.8876 65.7553C91.9706 65.8863 92.0174 66.0358 92.0281 66.2039H91.9259Z" stroke="white" stroke-width="0.5"/>
<path d="M95.8394 65.4888V65.3866H98.0487V65.4888H96.9951V68.656H96.893V65.4888H95.8394Z" stroke="white" stroke-width="0.5"/>
<path d="M102.082 65.3866V68.656H101.979V65.3866H102.082Z" stroke="white" stroke-width="0.5"/>
<path d="M108.67 66.4083H108.562C108.541 66.2997 108.502 66.189 108.443 66.0762C108.385 65.9634 108.307 65.8591 108.21 65.7633C108.114 65.6675 107.999 65.5904 107.867 65.5319C107.735 65.4733 107.586 65.4441 107.419 65.4441C107.195 65.4441 106.988 65.5052 106.798 65.6276C106.608 65.749 106.455 65.9272 106.339 66.1624C106.224 66.3966 106.167 66.6828 106.167 67.0213C106.167 67.364 106.224 67.6524 106.339 67.8865C106.455 68.1207 106.608 68.2979 106.798 68.4181C106.988 68.5384 107.195 68.5985 107.419 68.5985C107.586 68.5985 107.735 68.5698 107.867 68.5123C107.999 68.4538 108.114 68.3771 108.21 68.2824C108.307 68.1866 108.385 68.0823 108.443 67.9695C108.502 67.8557 108.541 67.7439 108.562 67.6343H108.67C108.65 67.7492 108.609 67.869 108.549 67.9935C108.488 68.1169 108.406 68.2324 108.303 68.3399C108.2 68.4474 108.075 68.5346 107.928 68.6017C107.781 68.6677 107.611 68.7007 107.419 68.7007C107.15 68.7007 106.915 68.6304 106.711 68.4899C106.508 68.3495 106.35 68.1531 106.236 67.9009C106.122 67.6487 106.065 67.3555 106.065 67.0213C106.065 66.6871 106.122 66.3939 106.236 66.1417C106.35 65.8894 106.508 65.6931 106.711 65.5526C106.915 65.4121 107.15 65.3419 107.419 65.3419C107.611 65.3419 107.781 65.3749 107.928 65.4409C108.075 65.5068 108.2 65.5936 108.303 65.7011C108.406 65.8075 108.488 65.923 108.549 66.0475C108.609 66.1709 108.65 66.2912 108.67 66.4083Z" stroke="white" stroke-width="0.5"/>
<path d="M115.168 67.0213C115.168 67.3544 115.111 67.6471 114.997 67.8993C114.883 68.1515 114.724 68.3484 114.521 68.4899C114.318 68.6304 114.082 68.7007 113.814 68.7007C113.545 68.7007 113.308 68.6299 113.105 68.4884C112.902 68.3468 112.743 68.1499 112.629 67.8977C112.517 67.6455 112.46 67.3533 112.46 67.0213C112.46 66.6882 112.517 66.396 112.631 66.1449C112.745 65.8926 112.904 65.6957 113.107 65.5542C113.31 65.4127 113.546 65.3419 113.814 65.3419C114.082 65.3419 114.318 65.4127 114.521 65.5542C114.724 65.6947 114.883 65.891 114.997 66.1433C115.111 66.3955 115.168 66.6882 115.168 67.0213ZM115.066 67.0213C115.066 66.7084 115.013 66.4338 114.908 66.1975C114.802 65.9602 114.655 65.7756 114.467 65.6436C114.28 65.5106 114.062 65.4441 113.814 65.4441C113.567 65.4441 113.349 65.51 113.161 65.642C112.974 65.7729 112.827 65.957 112.72 66.1944C112.615 66.4306 112.562 66.7063 112.562 67.0213C112.562 67.332 112.615 67.6061 112.719 67.8434C112.823 68.0797 112.969 68.2649 113.156 68.399C113.345 68.532 113.564 68.5985 113.814 68.5985C114.062 68.5985 114.28 68.5325 114.468 68.4006C114.657 68.2675 114.804 68.0829 114.909 67.8466C115.014 67.6093 115.067 67.3342 115.066 67.0213Z" stroke="white" stroke-width="0.5"/>
<path d="M124.417 68.656H123.562V65.3866H124.5C124.802 65.3866 125.059 65.4515 125.273 65.5813C125.488 65.7101 125.652 65.8953 125.766 66.1369C125.881 66.3785 125.938 66.669 125.937 67.0085C125.936 67.3565 125.875 67.6534 125.755 67.8993C125.636 68.1441 125.463 68.3314 125.236 68.4612C125.011 68.5911 124.738 68.656 124.417 68.656ZM123.664 68.5538H124.417C124.72 68.5538 124.977 68.4926 125.188 68.3702C125.4 68.2468 125.561 68.0696 125.671 67.8386C125.781 67.6077 125.836 67.331 125.835 67.0085C125.834 66.6903 125.781 66.4178 125.675 66.1912C125.571 65.9645 125.42 65.791 125.222 65.6707C125.024 65.5494 124.783 65.4888 124.5 65.4888H123.664V68.5538Z" stroke="white" stroke-width="0.5"/>
<path d="M132.444 67.0213C132.444 67.3544 132.387 67.6471 132.274 67.8993C132.16 68.1515 132.001 68.3484 131.798 68.4899C131.595 68.6304 131.359 68.7007 131.091 68.7007C130.821 68.7007 130.585 68.6299 130.382 68.4884C130.179 68.3468 130.02 68.1499 129.906 67.8977C129.793 67.6455 129.737 67.3533 129.737 67.0213C129.737 66.6882 129.794 66.396 129.908 66.1449C130.022 65.8926 130.18 65.6957 130.383 65.5542C130.587 65.4127 130.822 65.3419 131.091 65.3419C131.359 65.3419 131.595 65.4127 131.798 65.5542C132.001 65.6947 132.16 65.891 132.274 66.1433C132.387 66.3955 132.444 66.6882 132.444 67.0213ZM132.342 67.0213C132.342 66.7084 132.289 66.4338 132.184 66.1975C132.079 65.9602 131.932 65.7756 131.744 65.6436C131.556 65.5106 131.339 65.4441 131.091 65.4441C130.844 65.4441 130.626 65.51 130.438 65.642C130.25 65.7729 130.103 65.957 129.997 66.1944C129.892 66.4306 129.839 66.7063 129.839 67.0213C129.839 67.332 129.891 67.6061 129.995 67.8434C130.1 68.0797 130.246 68.2649 130.433 68.399C130.621 68.532 130.84 68.5985 131.091 68.5985C131.339 68.5985 131.557 68.5325 131.745 68.4006C131.933 68.2675 132.08 68.0829 132.186 67.8466C132.291 67.6093 132.343 67.3342 132.342 67.0213Z" stroke="white" stroke-width="0.5"/>
<path d="M140.838 68.656V65.3866H140.941V68.5538H142.575V68.656H140.838Z" stroke="white" stroke-width="0.5"/>
<path d="M148.761 65.3866H148.864V67.5513C148.864 67.7726 148.812 67.9706 148.709 68.1451C148.607 68.3186 148.467 68.4559 148.291 68.557C148.114 68.657 147.913 68.7071 147.689 68.7071C147.466 68.7071 147.266 68.6565 147.088 68.5554C146.911 68.4543 146.77 68.317 146.667 68.1435C146.564 67.969 146.513 67.7716 146.514 67.5513V65.3866H146.616V67.5513C146.616 67.7535 146.662 67.9339 146.755 68.0925C146.849 68.251 146.976 68.3761 147.138 68.4676C147.3 68.5591 147.483 68.6049 147.689 68.6049C147.894 68.6049 148.078 68.5591 148.239 68.4676C148.401 68.3761 148.528 68.251 148.621 68.0925C148.715 67.9339 148.761 67.7535 148.761 67.5513V65.3866Z" stroke="white" stroke-width="0.5"/>
<path d="M152.802 65.3866L153.83 66.9255H153.843L154.871 65.3866H154.999L153.901 67.0213L154.999 68.656H154.871L153.843 67.1171H153.83L152.802 68.656H152.675L153.773 67.0213L152.675 65.3866H152.802Z" stroke="white" stroke-width="0.5"/>
<path d="M161.331 67.0213C161.331 67.3544 161.274 67.6471 161.16 67.8993C161.046 68.1515 160.888 68.3484 160.684 68.4899C160.481 68.6304 160.245 68.7007 159.977 68.7007C159.708 68.7007 159.472 68.6299 159.268 68.4884C159.065 68.3468 158.906 68.1499 158.793 67.8977C158.68 67.6455 158.623 67.3533 158.623 67.0213C158.623 66.6882 158.68 66.396 158.794 66.1449C158.908 65.8926 159.067 65.6957 159.27 65.5542C159.473 65.4127 159.709 65.3419 159.977 65.3419C160.245 65.3419 160.481 65.4127 160.684 65.5542C160.888 65.6947 161.046 65.891 161.16 66.1433C161.274 66.3955 161.331 66.6882 161.331 67.0213ZM161.229 67.0213C161.229 66.7084 161.176 66.4338 161.071 66.1975C160.965 65.9602 160.818 65.7756 160.63 65.6436C160.443 65.5106 160.225 65.4441 159.977 65.4441C159.73 65.4441 159.513 65.51 159.324 65.642C159.137 65.7729 158.99 65.957 158.884 66.1944C158.778 66.4306 158.726 66.7063 158.726 67.0213C158.726 67.332 158.778 67.6061 158.882 67.8434C158.986 68.0797 159.132 68.2649 159.319 68.399C159.508 68.532 159.727 68.5985 159.977 68.5985C160.225 68.5985 160.443 68.5325 160.632 68.4006C160.82 68.2675 160.967 68.0829 161.072 67.8466C161.178 67.6093 161.23 67.3342 161.229 67.0213Z" stroke="white" stroke-width="0.5"/>
<path d="M56.6878 5.47005C63.2234 5.47005 40.2822 46.768 44.1502 52.3722C45.0172 53.6398 43.3499 53.9067 42.8831 53.2395C39.0818 47.1016 61.9563 6.0705 56.4877 6.0705C49.8188 6.0705 34.747 37.094 30.6123 37.094C27.0777 37.094 38.7484 11.0076 35.4139 11.0076C30.9457 11.0076 4.9369 53.1061 1.46905 59.511C1.1356 60.1114 0.868847 59.9113 1.06891 59.511C4.47007 53.1728 30.4789 10.4738 35.5473 10.4738C41.1492 10.4738 28.0114 36.6937 30.679 36.6937C34.4136 36.6937 49.6854 5.47005 56.6878 5.47005Z" fill="white"/>
<path d="M76.3179 34.3586L76.4513 34.6922C73.517 36.3601 70.9828 37.6944 68.9154 38.5618C66.7813 39.4291 65.1141 39.8961 64.0471 39.8961C61.913 39.8961 62.3798 37.8946 63.1134 36.0265C62.1798 36.9605 60.9127 37.9613 59.7123 38.8286C58.7786 39.4958 56.6446 40.63 55.4441 40.63C52.1097 40.63 57.845 32.7574 62.3131 32.7574C63.1801 32.7574 63.6469 33.091 63.847 33.8916C63.9137 34.2919 63.1134 34.6922 63.0467 34.2919C62.9133 33.7581 62.5132 33.558 61.9797 33.558C57.9783 33.558 52.9766 40.2297 55.5108 40.2297C56.6446 40.2297 58.7786 39.0288 59.5789 38.5618C61.046 37.4943 62.5132 36.1599 63.4469 35.2259L64.1804 33.7581C64.4472 33.2244 65.4475 33.3578 64.9807 34.0917C64.1138 35.4928 61.5796 39.4958 64.1804 39.4958C65.1808 39.4958 66.7813 39.0955 68.8487 38.1615C70.9161 37.3609 73.3836 36.0265 76.3179 34.3586Z" fill="white"/>
<path d="M86.6917 31.8233C86.8918 32.0902 86.5584 32.2903 86.3583 32.0902C86.0915 31.6899 85.558 31.5565 85.0245 31.5565C80.8231 31.5565 75.8214 40.5633 74.0208 44.166L73.754 44.8332C73.4873 45.6338 72.4869 45.5671 72.687 44.8332C74.2208 40.0963 75.6213 36.1599 77.1552 31.423C77.4219 30.5557 78.489 30.6891 78.2222 31.423C77.1552 34.8256 76.2215 37.4276 75.0878 40.7634C77.4886 36.3601 81.6233 31.2229 85.0912 31.2229C85.7581 31.2229 86.3583 31.3563 86.6917 31.8233Z" fill="white"/>
<path d="M94.7538 41.0303C98.8219 38.6285 103.023 36.4268 107.158 34.3586L107.291 34.6922C102.89 36.8271 98.4884 39.1622 94.2203 41.6975C92.7532 43.5655 91.0859 45.2335 89.6188 46.3677C86.7511 48.3692 85.0839 47.5686 88.8185 44.7665C90.0856 43.8324 91.8195 42.6982 94.0203 41.4306C95.0873 40.0295 99.4221 33.4913 95.7542 33.4913C94.087 33.4913 92.6865 34.4253 89.8188 37.9613C88.8852 40.3631 87.5514 43.4321 86.351 45.8339C83.8168 50.771 82.1496 50.9044 84.6171 45.7005C85.7508 43.2987 87.5514 40.5633 88.6184 38.8286C90.8859 33.0242 93.8869 27.0197 96.5545 21.282C99.022 15.8112 105.224 2.60121 107.358 2.33434C109.959 2.00076 98.0216 20.1478 97.3547 21.2153C94.9539 26.486 92.2197 31.7566 90.219 36.9605C93.0866 33.6914 94.5538 32.6907 96.0209 32.6907C99.9556 32.6907 96.0876 39.2289 94.7538 41.0303ZM107.225 2.73464C105.624 2.86808 99.222 17.0788 98.3551 18.9469C98.9553 18.0129 108.825 2.60121 107.225 2.73464ZM85.9509 45.8339C86.8178 43.8991 87.418 41.9643 88.2183 39.9628C87.3513 41.4306 85.9509 43.7657 85.0172 45.7672C82.6164 50.771 84.2169 49.6368 85.9509 45.8339ZM89.4187 46.0341C90.6858 45.1668 92.0863 43.7657 93.4201 42.1645C91.5528 43.2987 90.0856 44.2327 89.0186 45.0333C85.8175 47.4352 87.0846 47.7687 89.4187 46.0341Z" fill="white"/>
<path d="M151.506 34.3586L151.64 34.6922C142.237 40.163 126.898 56.6421 119.162 56.7756C113.494 56.8423 118.162 46.9681 119.629 43.5655C123.297 35.2259 129.099 24.5512 131.1 21.0151C131.233 20.7483 131.566 20.1478 132.033 19.4139C123.964 28.0872 111.293 40.3631 104.757 40.5633C99.8889 40.7634 106.891 32.7574 110.893 32.7574C112.96 32.7574 112.36 34.2919 110.359 35.3593C109.092 36.0932 107.225 36.627 105.091 36.6937C103.423 38.495 102.623 40.2297 104.824 40.2297C111.293 40.2297 124.897 26.6194 132.9 18.0129C136.368 12.2085 143.37 1 145.371 1C148.172 1 136.501 14.5436 134.834 16.4117L134.501 16.9454L133.167 19.1471C132.167 20.9484 125.031 33.9583 120.696 43.7657C119.429 46.5678 114.561 56.3085 119.362 56.3085C126.698 56.3085 141.303 40.2964 151.506 34.3586ZM145.171 1.4003C143.904 1.4003 138.302 10.5406 135.701 14.8772C137.568 12.8757 146.972 1.46702 145.171 1.4003ZM110.693 33.6247C109.092 33.6247 107.025 34.8923 105.491 36.2934C107.425 36.2267 109.092 35.6929 110.226 35.0925C111.026 34.6255 112.226 33.6247 110.693 33.6247Z" fill="white"/>
<path d="M178.918 34.3586L179.052 34.6922C169.649 40.163 154.31 56.6421 146.574 56.7756C140.905 56.8423 145.574 46.9681 147.041 43.5655C150.709 35.2259 156.511 24.5512 158.511 21.0151C159.912 18.6133 170.315 1 172.783 1C175.317 1 161.446 18.1463 160.579 19.1471C159.578 20.9484 152.443 33.9583 148.108 43.7657C146.841 46.5678 141.972 56.3085 146.774 56.3085C154.11 56.3085 168.715 40.2964 178.918 34.3586ZM172.583 1.4003C170.982 1.33359 162.98 15.144 161.913 16.9454C162.646 16.0781 174.183 1.46702 172.583 1.4003Z" fill="white"/>
<path d="M196.867 34.3586L197 34.6922C194.066 36.3601 191.532 37.6944 189.464 38.5618C187.33 39.4291 185.663 39.8961 184.596 39.8961C182.462 39.8961 182.929 37.8946 183.662 36.0265C182.729 36.9605 181.461 37.9613 180.261 38.8286C179.327 39.4958 177.193 40.63 175.993 40.63C172.658 40.63 178.394 32.7574 182.862 32.7574C183.729 32.7574 184.196 33.091 184.396 33.8916C184.462 34.2919 183.662 34.6922 183.595 34.2919C183.462 33.7581 183.062 33.558 182.528 33.558C178.527 33.558 173.525 40.2297 176.06 40.2297C177.193 40.2297 179.327 39.0288 180.128 38.5618C181.595 37.4943 183.062 36.1599 183.996 35.2259L184.729 33.7581C184.996 33.2244 185.996 33.3578 185.529 34.0917C184.662 35.4928 182.128 39.4958 184.729 39.4958C185.73 39.4958 187.33 39.0955 189.397 38.1615C191.465 37.3609 193.932 36.0265 196.867 34.3586Z" fill="white"/>
<path d="M56.6878 5.47005C63.2234 5.47005 40.2822 46.768 44.1502 52.3722C45.0172 53.6398 43.3499 53.9067 42.8831 53.2395C39.0818 47.1016 61.9563 6.0705 56.4877 6.0705C49.8188 6.0705 34.747 37.094 30.6123 37.094C27.0777 37.094 38.7484 11.0076 35.4139 11.0076C30.9457 11.0076 4.9369 53.1061 1.46905 59.511C1.1356 60.1114 0.868847 59.9113 1.06891 59.511C4.47007 53.1728 30.4789 10.4738 35.5473 10.4738C41.1492 10.4738 28.0114 36.6937 30.679 36.6937C34.4136 36.6937 49.6854 5.47005 56.6878 5.47005Z" stroke="white" stroke-width="0.5"/>
<path d="M76.3179 34.3586L76.4513 34.6922C73.517 36.3601 70.9828 37.6944 68.9154 38.5618C66.7813 39.4291 65.1141 39.8961 64.0471 39.8961C61.913 39.8961 62.3798 37.8946 63.1134 36.0265C62.1798 36.9605 60.9127 37.9613 59.7123 38.8286C58.7786 39.4958 56.6446 40.63 55.4441 40.63C52.1097 40.63 57.845 32.7574 62.3131 32.7574C63.1801 32.7574 63.6469 33.091 63.847 33.8916C63.9137 34.2919 63.1134 34.6922 63.0467 34.2919C62.9133 33.7581 62.5132 33.558 61.9797 33.558C57.9783 33.558 52.9766 40.2297 55.5108 40.2297C56.6446 40.2297 58.7786 39.0288 59.5789 38.5618C61.046 37.4943 62.5132 36.1599 63.4469 35.2259L64.1804 33.7581C64.4472 33.2244 65.4475 33.3578 64.9807 34.0917C64.1138 35.4928 61.5796 39.4958 64.1804 39.4958C65.1808 39.4958 66.7813 39.0955 68.8487 38.1615C70.9161 37.3609 73.3836 36.0265 76.3179 34.3586Z" stroke="white" stroke-width="0.5"/>
<path d="M86.6917 31.8233C86.8918 32.0902 86.5584 32.2903 86.3583 32.0902C86.0915 31.6899 85.558 31.5565 85.0245 31.5565C80.8231 31.5565 75.8214 40.5633 74.0208 44.166L73.754 44.8332C73.4873 45.6338 72.4869 45.5671 72.687 44.8332C74.2208 40.0963 75.6213 36.1599 77.1552 31.423C77.4219 30.5557 78.489 30.6891 78.2222 31.423C77.1552 34.8256 76.2215 37.4276 75.0878 40.7634C77.4886 36.3601 81.6233 31.2229 85.0912 31.2229C85.7581 31.2229 86.3583 31.3563 86.6917 31.8233Z" stroke="white" stroke-width="0.5"/>
<path d="M94.7538 41.0303C98.8219 38.6285 103.023 36.4268 107.158 34.3586L107.291 34.6922C102.89 36.8271 98.4884 39.1622 94.2203 41.6975C92.7532 43.5655 91.0859 45.2335 89.6188 46.3677C86.7511 48.3692 85.0839 47.5686 88.8185 44.7665C90.0856 43.8324 91.8195 42.6982 94.0203 41.4306C95.0873 40.0295 99.4221 33.4913 95.7542 33.4913C94.087 33.4913 92.6865 34.4253 89.8188 37.9613C88.8852 40.3631 87.5514 43.4321 86.351 45.8339C83.8168 50.771 82.1496 50.9044 84.6171 45.7005C85.7508 43.2987 87.5514 40.5633 88.6184 38.8286C90.8859 33.0242 93.8869 27.0197 96.5545 21.282C99.022 15.8112 105.224 2.60121 107.358 2.33434C109.959 2.00076 98.0216 20.1478 97.3547 21.2153C94.9539 26.486 92.2197 31.7566 90.219 36.9605C93.0866 33.6914 94.5538 32.6907 96.0209 32.6907C99.9556 32.6907 96.0876 39.2289 94.7538 41.0303ZM107.225 2.73464C105.624 2.86808 99.222 17.0788 98.3551 18.9469C98.9553 18.0129 108.825 2.60121 107.225 2.73464ZM85.9509 45.8339C86.8178 43.8991 87.418 41.9643 88.2183 39.9628C87.3513 41.4306 85.9509 43.7657 85.0172 45.7672C82.6164 50.771 84.2169 49.6368 85.9509 45.8339ZM89.4187 46.0341C90.6858 45.1668 92.0863 43.7657 93.4201 42.1645C91.5528 43.2987 90.0856 44.2327 89.0186 45.0333C85.8175 47.4352 87.0846 47.7687 89.4187 46.0341Z" stroke="white" stroke-width="0.5"/>
<path d="M151.506 34.3586L151.64 34.6922C142.237 40.163 126.898 56.6421 119.162 56.7756C113.494 56.8423 118.162 46.9681 119.629 43.5655C123.297 35.2259 129.099 24.5512 131.1 21.0151C131.233 20.7483 131.566 20.1478 132.033 19.4139C123.964 28.0872 111.293 40.3631 104.757 40.5633C99.8889 40.7634 106.891 32.7574 110.893 32.7574C112.96 32.7574 112.36 34.2919 110.359 35.3593C109.092 36.0932 107.225 36.627 105.091 36.6937C103.423 38.495 102.623 40.2297 104.824 40.2297C111.293 40.2297 124.897 26.6194 132.9 18.0129C136.368 12.2085 143.37 1 145.371 1C148.172 1 136.501 14.5436 134.834 16.4117L134.501 16.9454L133.167 19.1471C132.167 20.9484 125.031 33.9583 120.696 43.7657C119.429 46.5678 114.561 56.3085 119.362 56.3085C126.698 56.3085 141.303 40.2964 151.506 34.3586ZM145.171 1.4003C143.904 1.4003 138.302 10.5406 135.701 14.8772C137.568 12.8757 146.972 1.46702 145.171 1.4003ZM110.693 33.6247C109.092 33.6247 107.025 34.8923 105.491 36.2934C107.425 36.2267 109.092 35.6929 110.226 35.0925C111.026 34.6255 112.226 33.6247 110.693 33.6247Z" stroke="white" stroke-width="0.5"/>
<path d="M178.918 34.3586L179.052 34.6922C169.649 40.163 154.31 56.6421 146.574 56.7756C140.905 56.8423 145.574 46.9681 147.041 43.5655C150.709 35.2259 156.511 24.5512 158.511 21.0151C159.912 18.6133 170.315 1 172.783 1C175.317 1 161.446 18.1463 160.579 19.1471C159.578 20.9484 152.443 33.9583 148.108 43.7657C146.841 46.5678 141.972 56.3085 146.774 56.3085C154.11 56.3085 168.715 40.2964 178.918 34.3586ZM172.583 1.4003C170.982 1.33359 162.98 15.144 161.913 16.9454C162.646 16.0781 174.183 1.46702 172.583 1.4003Z" stroke="white" stroke-width="0.5"/>
<path d="M196.867 34.3586L197 34.6922C194.066 36.3601 191.532 37.6944 189.464 38.5618C187.33 39.4291 185.663 39.8961 184.596 39.8961C182.462 39.8961 182.929 37.8946 183.662 36.0265C182.729 36.9605 181.461 37.9613 180.261 38.8286C179.327 39.4958 177.193 40.63 175.993 40.63C172.658 40.63 178.394 32.7574 182.862 32.7574C183.729 32.7574 184.196 33.091 184.396 33.8916C184.462 34.2919 183.662 34.6922 183.595 34.2919C183.462 33.7581 183.062 33.558 182.528 33.558C178.527 33.558 173.525 40.2297 176.06 40.2297C177.193 40.2297 179.327 39.0288 180.128 38.5618C181.595 37.4943 183.062 36.1599 183.996 35.2259L184.729 33.7581C184.996 33.2244 185.996 33.3578 185.529 34.0917C184.662 35.4928 182.128 39.4958 184.729 39.4958C185.73 39.4958 187.33 39.0955 189.397 38.1615C191.465 37.3609 193.932 36.0265 196.867 34.3586Z" stroke="white" stroke-width="0.5"/>
</svg>
