<svg xmlns="http://www.w3.org/2000/svg" width="42" height="32" viewBox="0 0 42 32" fill="none">
  <path d="M37.098 0H4.902C3.6024 0.00158779 2.35648 0.518557 1.43752 1.43752C0.518557 2.35648 0.00158779 3.6024 0 4.902V28.048C0.000397329 28.6456 0.179282 29.2295 0.51372 29.7248C0.848157 30.2201 1.3229 30.6042 1.87709 30.8279C2.43128 31.0516 3.03965 31.1047 3.6242 30.9804C4.20875 30.856 4.74285 30.5599 5.158 30.13L7.386 27.822C7.95512 27.2343 8.63634 26.7667 9.38936 26.4468C10.1424 26.127 10.9519 25.9615 11.77 25.96H37.098C38.3976 25.9584 39.6435 25.4414 40.5625 24.5225C41.4814 23.6035 41.9984 22.3576 42 21.058V4.902C41.9984 3.6024 41.4814 2.35648 40.5625 1.43752C39.6435 0.518557 38.3976 0.00158779 37.098 0ZM40 21.058C39.9995 21.8275 39.6936 22.5653 39.1494 23.1094C38.6053 23.6536 37.8675 23.9595 37.098 23.96H11.77C10.6839 23.9621 9.60928 24.1819 8.60962 24.6065C7.60997 25.0311 6.70561 25.6518 5.95 26.432L3.72 28.742C3.58166 28.8855 3.40357 28.9844 3.2086 29.026C3.01364 29.0676 2.81069 29.05 2.62582 28.9754C2.44095 28.9008 2.2826 28.7726 2.17108 28.6074C2.05957 28.4422 1.99999 28.2474 2 28.048V4.902C2.00106 4.13267 2.30714 3.39515 2.85114 2.85114C3.39515 2.30714 4.13267 2.00106 4.902 2H37.102C37.8706 2.00212 38.6071 2.30867 39.1503 2.85255C39.6934 3.39644 39.9989 4.13336 40 4.902V21.058Z" fill="white"/>
  <path d="M11.986 12.058C11.5984 12.058 11.2194 12.1729 10.8971 12.3883C10.5748 12.6037 10.3235 12.9098 10.1752 13.2679C10.0269 13.6261 9.98804 14.0202 10.0637 14.4004C10.1393 14.7806 10.326 15.1298 10.6001 15.4039C10.8742 15.678 11.2234 15.8647 11.6036 15.9403C11.9838 16.016 12.3779 15.9771 12.7361 15.8288C13.0942 15.6804 13.4003 15.4292 13.6157 15.1069C13.8311 14.7846 13.946 14.4056 13.946 14.018C13.946 13.4982 13.7395 12.9996 13.3719 12.6321C13.0044 12.2645 12.5058 12.058 11.986 12.058ZM21.018 12.058C20.6303 12.0576 20.2511 12.1722 19.9285 12.3873C19.606 12.6025 19.3544 12.9084 19.2058 13.2665C19.0571 13.6246 19.018 14.0188 19.0934 14.3991C19.1688 14.7795 19.3553 15.1289 19.6294 15.4032C19.9034 15.6775 20.2526 15.8644 20.6329 15.9402C21.0131 16.016 21.4073 15.9773 21.7656 15.829C22.1239 15.6807 22.4301 15.4295 22.6455 15.1071C22.861 14.7847 22.976 14.4057 22.976 14.018C22.976 13.4985 22.7698 13.0003 22.4026 12.6328C22.0355 12.2652 21.5375 12.0585 21.018 12.058ZM30.05 12.058C29.6623 12.0576 29.2831 12.1722 28.9605 12.3873C28.638 12.6025 28.3864 12.9084 28.2378 13.2665C28.0891 13.6246 28.05 14.0188 28.1254 14.3991C28.2008 14.7795 28.3873 15.1289 28.6614 15.4032C28.9354 15.6775 29.2846 15.8644 29.6649 15.9402C30.0451 16.016 30.4393 15.9773 30.7976 15.829C31.1559 15.6807 31.4621 15.4295 31.6775 15.1071C31.893 14.7847 32.008 14.4057 32.008 14.018C32.008 13.4985 31.8018 13.0003 31.4346 12.6328C31.0675 12.2652 30.5695 12.0585 30.05 12.058Z" fill="white"/>
</svg>