<svg width="48" height="48" viewBox="0 0 48 48" fill="none" xmlns="http://www.w3.org/2000/svg">
<path d="M35.205 28.824C34.7227 28.5843 31.588 27.1461 31.1057 26.9064C30.6235 26.6667 30.1412 26.6667 29.659 27.1461C29.1767 27.6255 28.2122 29.0637 27.7299 29.5431C27.4888 30.0225 27.0065 30.0225 26.5243 29.7828C24.8364 29.0637 23.1485 28.1049 21.7017 26.9064C20.496 25.7079 19.2904 24.2697 18.3259 22.8315C18.0847 22.3521 18.3259 21.8727 18.567 21.633C18.8081 21.3933 19.0493 20.9139 19.5315 20.6742C19.7726 20.4345 20.0138 19.9551 20.0138 19.7154C20.2549 19.4757 20.2549 18.9963 20.0138 18.7566C19.7726 18.5169 18.567 15.6404 18.0847 14.4419C17.8436 12.764 17.3613 12.764 16.8791 12.764H15.6734C15.1912 12.764 14.4678 13.2434 14.2267 13.4831C12.7799 14.9213 12.0565 16.5993 12.0565 18.5169C12.2976 20.6742 13.021 22.8315 14.4678 24.7491C17.1202 28.5843 20.496 31.7004 24.5952 33.618C25.8009 34.0974 26.7654 34.5768 27.9711 34.8165C29.1767 35.2959 30.3824 35.2959 31.8291 35.0562C33.517 34.8165 34.9638 33.618 35.9283 32.1798C36.4106 31.221 36.4106 30.2622 36.1695 29.3034L35.205 28.824ZM41.2332 7.01124C31.8291 -2.33708 16.638 -2.33708 7.2339 7.01124C-0.48226 14.6816 -1.92904 26.427 3.37582 35.7753L0 48L12.7799 44.6442C16.3968 46.5618 20.2549 47.5206 24.113 47.5206C37.3751 47.5206 47.9848 36.9738 47.9848 23.7903C48.226 17.5581 45.5735 11.5655 41.2332 7.01124ZM34.7227 40.5693C31.588 42.4869 27.9711 43.6854 24.113 43.6854C20.496 43.6854 17.1202 42.7266 13.9855 41.0487L13.2621 40.5693L5.78712 42.4869L7.71615 35.2959L7.2339 34.5768C1.44678 24.9888 4.34034 13.0037 13.7444 7.01124C23.1485 1.01873 35.205 4.13483 40.9921 13.2434C46.7792 22.5918 44.1268 34.8165 34.7227 40.5693Z" fill="#60D038"/>
</svg>
